<svg xmlns="http://www.w3.org/2000/svg" fill="none" viewBox="0 0 123 48" height="48" width="123">
<g clip-path="url(#clip0_18378_7165)">
<g clip-path="url(#clip1_18378_7165)">
<mask height="46" width="123" y="0" x="0" maskUnits="userSpaceOnUse" style="mask-type:luminance" id="mask0_18378_7165">
<path fill="white" d="M122.031 0H0V45.6291H122.031V0Z"></path>
</mask>
<g mask="url(#mask0_18378_7165)">
<path fill="#9A3BE3" d="M18.8411 10.8866L9.4192 5.44328L0 10.8866V5.44328L9.42055 0L18.8425 5.44328V10.8866H18.8411Z"></path>
<path fill="white" d="M0 15.4576H4.93489V27.4566C4.93489 30.5567 7.24813 32.0678 9.42055 32.0678C11.6117 32.0678 13.9075 30.5164 13.9075 27.415V15.4576H18.8425V27.7425C18.8425 30.5983 17.9453 32.8019 16.151 34.3131C14.3554 35.8229 12.1132 36.5582 9.37897 36.5582C6.64735 36.5582 4.40385 35.8241 2.65117 34.3131C0.897131 32.8033 0 30.6815 0 27.8646V15.4576ZM61.5064 30.3702C60.0125 31.7015 58.3108 32.3537 56.3704 32.3537C52.8302 32.3537 50.4565 30.3353 50.1884 27.2097H66.1329C66.1329 27.2097 66.2401 26.2004 66.2401 25.2529C66.2401 22.3139 65.3015 19.8648 63.3839 17.8651C61.5092 15.8655 59.0631 14.8858 56.0847 14.8858C52.9454 14.8858 50.3748 15.8655 48.3351 17.8651C46.337 19.8648 45.3178 22.4764 45.3178 25.7429V25.9039C45.3178 29.1288 46.337 31.7001 48.3351 33.6192C50.3332 35.537 52.9844 36.5166 56.2067 36.5166C59.9535 36.5166 62.9346 35.0377 65.1714 32.4879L61.5064 30.3702ZM52.1275 20.3546C53.2271 19.497 54.5748 19.0488 56.0834 19.0488C57.5102 19.0488 58.693 19.497 59.7135 20.3962C60.6871 21.2148 61.2128 22.22 61.2583 23.3755H50.3144C50.4726 22.1811 51.0761 21.1746 52.1288 20.3559L52.1275 20.3546ZM111.182 39.2893C109.181 44.02 107.086 45.6291 103.874 45.6291H101.648V41.2514H103.448C104.553 41.2514 105.58 40.8353 106.559 38.5754L107.538 36.3127L99.0948 15.4576H104.111L110.107 30.4775L116.266 15.4576H121.282L111.184 39.2893H111.182ZM38.0536 7.58112V17.3203C36.4364 15.8709 33.9207 15.0079 31.4881 15.0079C28.5915 15.0079 26.1456 16.0279 24.1474 18.1081C22.1895 20.1493 21.2106 22.6789 21.2106 25.7401C21.2106 28.8027 22.1895 31.3324 24.1474 33.4139C26.1456 35.4551 28.5929 36.4764 31.4881 36.4764C34.8272 36.4764 36.9379 35.1625 38.0536 34.1332V36.0268H42.9483V7.58245H38.0536V7.58112ZM36.5853 30.2319C35.4024 31.4156 33.8938 32.0289 32.1398 32.0289C30.3858 32.0289 28.959 31.4156 27.7762 30.2319C26.6363 29.0482 26.0637 27.5384 26.0637 25.7429C26.0637 23.9458 26.635 22.436 27.7762 21.2524C28.959 20.0687 30.3858 19.4568 32.1398 19.4568C33.8938 19.4568 35.4024 20.0687 36.5853 21.2524C37.8082 22.436 38.4224 23.9458 38.4224 25.7429C38.4224 27.5384 37.8082 29.0482 36.5853 30.2319ZM91.4859 15.0495C87.7686 15.0495 85.8362 16.5929 84.5127 18.0798C83.983 17.0693 82.4917 15.0495 79.0079 15.0495C76.063 15.0495 74.3277 16.5392 73.4614 17.5994V15.4602H68.6097V36.0295H73.4614V24.1928C73.4614 21.4175 75.1753 19.4178 77.4577 19.4178C79.7843 19.4178 81.1293 21.1732 81.1293 23.9888V36.0282H85.9824V24.1915C85.9824 21.3759 87.6533 19.4165 90.0591 19.4165C92.3843 19.4165 93.7293 21.1719 93.7293 23.9862V36.0268H98.624V23.2937C98.624 17.9309 95.7436 15.0509 91.4859 15.0509V15.0495Z"></path>
</g>
</g>
</g>
<defs>
<clipPath id="clip0_18378_7165">
<rect fill="white" height="48" width="122.031"></rect>
</clipPath>
<clipPath id="clip1_18378_7165">
<rect fill="white" height="45.6291" width="122.031"></rect>
</clipPath>
</defs>
</svg>
