<svg xmlns="http://www.w3.org/2000/svg" fill="none" viewBox="0 0 177 48" height="48" width="177">
<g clip-path="url(#clip0_18378_6999)">
<path fill="white" d="M175.189 21.5615C176.267 22.7792 176.828 24.3744 176.749 26.0036V35.9164H172.91V27.1568C172.937 26.678 172.869 26.1985 172.708 25.7471C172.546 25.2957 172.296 24.8817 171.972 24.53C171.635 24.2011 171.234 23.9459 170.795 23.7805C170.355 23.6151 169.886 23.5431 169.417 23.569C168.848 23.5511 168.283 23.6588 167.76 23.8845C167.238 24.1102 166.77 24.4484 166.391 24.8752C165.626 25.7828 165.228 26.9466 165.277 28.1356V35.9413H161.455V13.9231H165.277V23.092C166.35 21.0133 168.238 19.955 170.939 19.9171C171.721 19.8769 172.504 20.0025 173.236 20.2857C173.967 20.569 174.631 21.0036 175.185 21.5615H175.189ZM152.959 23.3412C152.384 23.3235 151.812 23.43 151.281 23.6535C150.751 23.877 150.274 24.2123 149.884 24.6368C149.071 25.5684 148.647 26.7799 148.702 28.0182C148.639 29.276 149.062 30.5095 149.884 31.4601C150.275 31.8904 150.755 32.2298 151.291 32.4548C151.826 32.6797 152.404 32.7848 152.983 32.7628C154.859 32.7628 156.271 32.1684 157.209 30.8977L159.572 32.8802C158.869 33.9092 157.905 34.7302 156.78 35.2579C155.518 35.8334 154.143 36.1168 152.757 36.0872C151.316 36.1145 149.892 35.7676 148.624 35.0799C147.437 34.422 146.463 33.4333 145.821 32.2324C145.156 30.9265 144.809 29.4802 144.809 28.0128C144.809 26.5455 145.156 25.0991 145.821 23.7932C146.474 22.5907 147.457 21.6024 148.652 20.9457C149.92 20.257 151.344 19.9088 152.785 19.9349C154.102 19.9137 155.408 20.1733 156.618 20.6966C157.7 21.159 158.646 21.8945 159.364 22.8322L157.032 25.0888C156.511 24.5118 155.872 24.0564 155.158 23.7545C154.443 23.4526 153.672 23.3115 152.898 23.3412H152.959ZM142.396 20.063V35.9413H138.574V33.4141C138.03 34.2638 137.275 34.9557 136.384 35.4216C135.432 35.9066 134.378 36.1509 133.312 36.1335C131.937 36.1586 130.581 35.8054 129.391 35.1119C128.259 34.4218 127.346 33.4218 126.758 32.2289C126.112 30.9006 125.79 29.4362 125.821 27.9576C125.792 26.5021 126.114 25.0612 126.758 23.7576C127.347 22.5745 128.261 21.5862 129.391 20.9101C130.573 20.2233 131.919 19.875 133.284 19.9028C134.353 19.8854 135.411 20.1297 136.366 20.6147C137.264 21.0766 138.025 21.7676 138.574 22.6186V20.063H142.396ZM137.194 31.7092C138.019 30.8829 138.511 29.7785 138.574 28.609V27.4807C138.509 26.3116 138.018 25.2078 137.194 24.3805C136.788 23.9874 136.309 23.6799 135.783 23.4764C135.257 23.2728 134.696 23.1772 134.133 23.1952C133.537 23.1752 132.944 23.285 132.394 23.5172C131.845 23.7495 131.351 24.0986 130.948 24.5407C130.132 25.5169 129.685 26.7516 129.685 28.0271C129.685 29.3026 130.132 30.5372 130.948 31.5134C131.35 31.9576 131.843 32.3089 132.393 32.543C132.943 32.7771 133.536 32.8885 134.133 32.8696C134.694 32.8913 135.254 32.7998 135.78 32.6005C136.306 32.4013 136.787 32.0982 137.194 31.7092ZM121.978 22.099C123.259 23.5441 123.899 25.5717 123.899 28.1819C123.899 28.698 123.899 29.0824 123.867 29.3672H112.246C112.434 30.4151 112.993 31.3593 113.819 32.0252C114.645 32.6912 115.683 33.0341 116.74 32.9906C117.532 32.9926 118.317 32.8352 119.048 32.5279C119.767 32.2145 120.414 31.7553 120.948 31.1789L123.004 33.343C122.211 34.2219 121.233 34.9115 120.141 35.3611C118.953 35.8488 117.68 36.0909 116.397 36.073C114.92 36.104 113.459 35.7574 112.151 35.0657C110.952 34.4137 109.968 33.4241 109.32 32.2182C108.657 30.9166 108.312 29.4752 108.312 28.0128C108.312 26.5505 108.657 25.109 109.32 23.8074C109.975 22.607 110.957 21.6193 112.151 20.96C113.417 20.2633 114.841 19.9089 116.284 19.9313C118.835 19.9455 120.725 20.6574 121.981 22.1132L121.978 22.099ZM120.353 26.7546C120.361 26.2369 120.263 25.7233 120.066 25.2448C119.87 24.7663 119.578 24.333 119.21 23.9712C118.823 23.6155 118.369 23.3405 117.875 23.1621C117.382 22.9837 116.858 22.9055 116.334 22.9318C115.302 22.8981 114.296 23.2637 113.524 23.9534C112.743 24.6907 112.248 25.6838 112.13 26.7546H120.353ZM104.182 20.75C105.151 20.1916 106.249 19.8994 107.367 19.9028V23.6651C106.674 23.583 105.971 23.6431 105.302 23.842C104.633 24.0408 104.011 24.3742 103.474 24.8219C103 25.2609 102.628 25.7992 102.383 26.3988C102.138 26.9985 102.027 27.6448 102.059 28.2922V35.9484H98.2333V20.063H102.055V23.124C102.53 22.1386 103.278 21.3127 104.21 20.7464L104.182 20.75ZM95.3351 34.9447C94.1624 35.7061 92.7993 36.1183 91.4037 36.1335C90.1839 36.1845 88.9917 35.7584 88.0773 34.9447C87.2174 34.1438 86.7928 32.9692 86.7928 31.3853V16.3577L90.5756 15.9021V20.7179H95.0768V23.5369H90.5898V30.6556C90.5331 31.2066 90.6779 31.7595 90.9967 32.2111C91.157 32.3733 91.3506 32.4987 91.5636 32.5786C91.777 32.6585 92.0049 32.691 92.2317 32.6738C93.0127 32.6198 93.7728 32.3977 94.4611 32.0224L95.3422 34.9269L95.3351 34.9447ZM79.7296 20.0488H83.5125V28.9471C83.5125 34.1438 79.9242 36.0659 76.2794 36.0659C72.6346 36.0659 69.0464 34.1331 69.0464 28.9471V20.0488H72.8363V29.0895C72.8363 30.008 73.199 30.8889 73.8448 31.5384C74.4906 32.1879 75.3661 32.5528 76.2794 32.5528C77.1928 32.5528 78.0682 32.1879 78.714 31.5384C79.3598 30.8889 79.7225 30.008 79.7225 29.0895L79.7296 20.0488ZM61.1977 16.2972C62.4097 16.9834 63.4751 17.903 64.3336 19.0037C65.1921 20.1044 65.8262 21.3644 66.2003 22.7117C66.5743 24.0591 66.6808 25.4674 66.5131 26.8561C66.3457 28.2448 65.908 29.5867 65.2247 30.8051L65.1503 30.9404C64.1984 32.5617 62.8339 33.8984 61.1977 34.813C59.4881 35.7457 57.5744 36.2342 55.6296 36.2342C53.6847 36.2342 51.771 35.7457 50.0615 34.813C48.45 33.9112 47.1021 32.5992 46.1534 31.0086C45.2047 29.418 44.688 27.6045 44.6555 25.7498C44.6229 23.8952 45.0755 22.0645 45.9676 20.4411C46.8601 18.8177 48.1605 17.4587 49.7395 16.5001L50.0933 16.2972C51.8082 15.3822 53.7201 14.9038 55.6614 14.9038C57.6027 14.9038 59.5147 15.3822 61.2295 16.2972H61.1977ZM52.1953 19.3938C51.1263 20.0205 50.2391 20.9183 49.6224 21.9975C49.0059 23.0767 48.6814 24.2997 48.6814 25.5444C48.6814 26.7891 49.0059 28.0121 49.6224 29.0913C50.2391 30.1705 51.1263 31.0683 52.1953 31.695C53.2498 32.3231 54.4555 32.6492 55.6809 32.6382C56.8904 32.6441 58.0783 32.318 59.1169 31.695C60.1658 31.0721 61.0317 30.1804 61.6258 29.1109C62.2387 28.0263 62.5583 26.7991 62.553 25.5515C62.5657 24.3031 62.2455 23.074 61.6258 21.9922C61.0296 20.9317 60.1637 20.0497 59.1169 19.4366C58.0769 18.8174 56.8893 18.4938 55.6809 18.5004C54.4537 18.4954 53.247 18.8184 52.1847 19.4366L52.1953 19.3938ZM15.8993 6C21.3063 6 29.4771 7.67645 33.2812 11.517C34.739 13.0397 35.5392 15.0804 35.507 17.1942C35.507 22.1773 31.5437 29.78 27.1699 34.2008C24.9016 36.4859 21.3063 39.4722 16.4655 39.4722C11.7414 39.4722 8.1213 36.226 7.0774 35.1689C3.0681 31.1397 0.198242 24.9749 0.198242 19.2515C0.198242 15.6316 1.21738 12.4887 3.82183 9.8441C6.23166 7.41306 10.3825 6 15.8993 6ZM22.5944 25.8007C24.0071 24.3779 24.8336 22.471 24.9087 20.4617C24.918 19.8364 24.8025 19.2156 24.5691 18.6361C24.3357 18.0565 23.9891 17.5299 23.5499 17.0874C22.8094 16.3317 21.9183 15.7422 20.9351 15.3575C19.952 14.9729 18.8991 14.8019 17.8455 14.8557C15.2163 14.8628 13.447 15.6992 12.2792 16.9023C11.7173 17.4765 11.2756 18.1583 10.9802 18.9072C10.6848 19.6561 10.5417 20.457 10.5594 21.2625C10.6351 23.2107 11.4359 25.0592 12.8029 26.4414C14.0015 27.6294 15.6075 28.3097 17.29 28.3421C19.0027 28.3777 20.7685 27.6551 22.5944 25.8007Z" clip-rule="evenodd" fill-rule="evenodd"></path>
</g>
<defs>
<clipPath id="clip0_18378_6999">
<rect fill="white" height="48" width="176.933"></rect>
</clipPath>
</defs>
</svg>
