<svg xmlns="http://www.w3.org/2000/svg" fill="none" viewBox="0 0 134 48" height="48" width="134">
<g clip-path="url(#clip0_18378_6690)">
<g clip-path="url(#clip1_18378_6690)">
<path fill="#F05537" d="M124.816 23.6753C125.669 23.4808 126.56 23.5404 127.38 23.8467C128.199 24.153 128.911 24.6925 129.424 25.3979L121.448 27.1933C121.723 25.5133 123.01 24.0813 124.816 23.6753ZM129.469 30.2819C128.838 31.1904 127.886 31.8284 126.802 32.068C124.986 32.4773 123.173 31.7279 122.174 30.3173L130.175 28.516L131.478 28.2227L133.971 27.6619C133.955 27.1292 133.886 26.5993 133.763 26.0807C132.748 21.7967 128.365 19.1259 123.973 20.1146C119.58 21.1039 116.841 25.3787 117.856 29.662C118.869 33.946 123.252 36.6173 127.645 35.6286C130.233 35.0453 132.247 33.322 133.257 31.1279L129.469 30.2819ZM110.64 35.4119V24.0546H108.177V20.1853H110.64V14.8593H114.824V20.1853H117.966V24.0546H114.824V35.4119H110.64ZM102.648 35.4119H106.689V20.1853H102.648V35.4119ZM102.123 14.8433C102.123 13.434 103.24 12.3766 104.686 12.3766C106.131 12.3766 107.215 13.434 107.215 14.8433C107.215 16.2533 106.131 17.342 104.686 17.342C103.24 17.342 102.123 16.2533 102.123 14.8433ZM101.242 20.228C99.1771 20.3346 97.9583 20.65 96.7196 21.5433V20.1853H92.6816V35.4119H96.7188V27.9453C96.7188 25.5959 97.2951 24.2593 101.242 24.1279V20.228ZM78.7297 28.0379C78.8302 30.2599 80.7738 32.1233 83.153 32.1233C85.5663 32.1233 87.5432 30.1619 87.5432 27.8419C87.5432 25.5539 85.5663 23.5933 83.153 23.5933C80.7745 23.5933 78.8302 25.4886 78.7297 27.6786V28.0379ZM74.7901 35.4119V12.92L78.8302 12.0106V21.3186C80.0784 20.3253 81.5571 19.9086 83.1664 19.9086C87.7657 19.9086 91.4446 23.4326 91.4446 27.8539C91.4446 32.2427 87.7657 35.8307 83.1664 35.8307C81.5571 35.8307 80.0784 35.4146 78.8302 34.4213V35.4126L74.7901 35.4119ZM66.1906 35.4119V23.9766H63.727V20.1853H66.1906V14.8553L70.3741 13.9133V20.1853H73.5164V23.9766H70.3741V35.4119H66.1906ZM58.7871 35.4119V27.2766C58.7871 24.3293 57.1771 23.6886 55.5671 23.6886C53.9577 23.6886 52.3484 24.2973 52.3484 27.2126V35.4119H48.3083V20.1853H52.3484V21.3179C53.2348 20.6773 54.3188 19.908 56.4548 19.908C59.8705 19.908 62.8272 21.8627 62.8272 26.6359V35.4119H58.7871ZM38.0767 23.6753C39.8817 23.2686 41.6826 24.0053 42.685 25.3979L34.7093 27.1933C34.984 25.5133 36.2724 24.0813 38.0767 23.6753ZM42.7299 30.2819C42.099 31.1904 41.1466 31.8284 40.0633 32.068C39.2044 32.2637 38.3064 32.2019 37.4828 31.8903C36.6592 31.5787 35.9468 31.0313 35.4356 30.3173L43.4367 28.516L44.7399 28.2227L47.2316 27.6619C47.2166 27.1292 47.1469 26.5993 47.0239 26.0807C46.0095 21.7967 41.6264 19.1259 37.2339 20.1146C32.8414 21.1039 30.1024 25.3787 31.1168 29.662C32.1312 33.946 36.5136 36.6173 40.9068 35.6286C43.4951 35.0453 45.5083 33.322 46.518 31.1279L42.7299 30.2819ZM21.5994 35.4119L15.3249 20.1853H19.7268L23.7019 30.5119L27.7092 20.1853H32.1111L25.8371 35.4119H21.5994ZM7.40344 23.6713C8.2568 23.4767 9.14878 23.5363 9.96842 23.8427C10.788 24.149 11.4988 24.6885 12.0123 25.3939L4.03602 27.19C4.31072 25.51 5.59913 24.0779 7.40344 23.6713ZM12.0566 30.2779C11.4259 31.1867 10.4734 31.8249 9.38998 32.0646C7.57429 32.4733 5.76127 31.7246 4.7623 30.3139L12.7634 28.5126L14.0666 28.2193L16.5583 27.658C16.5432 27.1254 16.4735 26.5958 16.3506 26.0773C15.3362 21.7933 10.9537 19.122 6.56058 20.1106C2.16806 21.1 -0.56956 25.3753 0.44348 29.6593C1.45786 33.9433 5.841 36.6139 10.2335 35.6253C12.8218 35.0426 14.8351 33.3186 15.8454 31.1253L12.0566 30.2779Z"></path>
</g>
</g>
<defs>
<clipPath id="clip0_18378_6690">
<rect fill="white" height="48" width="134"></rect>
</clipPath>
<clipPath id="clip1_18378_6690">
<rect transform="translate(0 12)" fill="white" height="24" width="134"></rect>
</clipPath>
</defs>
</svg>
