<svg xmlns="http://www.w3.org/2000/svg" fill="none" viewBox="0 0 96 48" height="48" width="96">
<g clip-path="url(#clip0_18378_6500)">
<path fill="white" d="M4.81834 34.4457C4.3948 34.0105 3.7881 33.794 3.00031 33.794H1.37621V38.6996H3.00031C3.7881 38.6996 4.3948 38.482 4.81834 38.0463C5.24186 37.611 5.4542 37.0108 5.4542 36.2467C5.4542 35.4814 5.24186 34.8814 4.81834 34.4457ZM0.185385 44.4273C0.0614503 44.3154 0 44.16 0 43.9583V33.1924C0 33.0052 0.0646933 32.8511 0.194016 32.7333C0.323338 32.617 0.488201 32.5576 0.688659 32.5576H3.00031C4.16529 32.5576 5.09533 32.8907 5.78935 33.5545C6.48339 34.2197 6.83037 35.1163 6.83037 36.2467C6.83037 37.4105 6.48554 38.3171 5.79799 38.9643C5.10934 39.6123 4.17715 39.9356 3.00031 39.9356H1.37621V43.9583C1.37621 44.16 1.31481 44.3154 1.19087 44.4273C1.06802 44.5385 0.899878 44.5945 0.688659 44.5945C0.476356 44.5945 0.308241 44.5385 0.185385 44.4273Z"></path>
<path fill="white" d="M9.52124 43.959C9.52124 44.1467 9.45974 44.2995 9.33582 44.4183C9.21297 44.5357 9.05027 44.5951 8.85087 44.5951C8.65042 44.5951 8.48876 44.5357 8.36486 44.4183C8.242 44.2995 8.17944 44.1467 8.17944 43.959V36.2991C8.17944 36.1459 8.23554 36.0221 8.34756 35.9294C8.45862 35.8335 8.58576 35.787 8.72697 35.787C8.90365 35.787 9.09763 35.9176 9.30891 36.1749C9.4738 36.3635 9.60417 36.4586 9.69792 36.4586C9.76792 36.4586 9.91568 36.3819 10.1388 36.2287C10.4566 36.0283 10.7002 35.8895 10.8715 35.8128C11.0418 35.7361 11.2444 35.6988 11.4804 35.6988C11.6679 35.6988 11.8242 35.7527 11.9482 35.8569C12.071 35.9639 12.1335 36.1168 12.1335 36.3172C12.1335 36.5166 12.0743 36.6719 11.9567 36.784C11.8392 36.8959 11.6808 36.952 11.4804 36.952H11.2336C10.7627 36.952 10.3597 37.1136 10.0245 37.4369C9.68822 37.7614 9.52124 38.2174 9.52124 38.8047"></path>
<path fill="white" d="M17.5947 38.7525C17.5947 38.2225 17.4212 37.7784 17.0741 37.4204C16.7271 37.0605 16.3068 36.8816 15.8121 36.8816C15.3186 36.8816 14.8972 37.0605 14.5502 37.4204C14.2032 37.7784 14.0297 38.2225 14.0297 38.7525V41.6289C14.0297 42.159 14.2032 42.603 14.5502 42.9617C14.8972 43.3208 15.3186 43.5006 15.8121 43.5006C16.3068 43.5006 16.7271 43.3174 17.0741 42.9533C17.4212 42.5879 17.5947 42.1472 17.5947 41.6289V38.7525ZM17.9999 36.555C18.6249 37.1372 18.9363 37.8697 18.9363 38.7525V41.6289C18.9363 42.5112 18.6249 43.2442 17.9999 43.8265C17.3769 44.4095 16.6474 44.7003 15.8121 44.7003C14.9651 44.7003 14.2322 44.4157 13.6147 43.8445C12.9961 43.2733 12.688 42.5353 12.688 41.6289V38.7525C12.688 37.8579 12.9961 37.1229 13.6147 36.5453C14.2322 35.969 14.9651 35.6811 15.8121 35.6811C16.6474 35.6811 17.3769 35.972 17.9999 36.555Z"></path>
<path fill="white" d="M25.4563 38.7525C25.4563 38.246 25.2892 37.8087 24.953 37.4366C24.6178 37.0669 24.192 36.8816 23.6737 36.8816C23.1564 36.8816 22.7298 37.0669 22.3945 37.4366C22.0594 37.8087 21.8913 38.246 21.8913 38.7525V41.6289C21.8913 42.1707 22.0713 42.6183 22.429 42.9706C22.789 43.3242 23.2027 43.5006 23.6737 43.5006C24.1447 43.5006 24.5597 43.3208 24.9185 42.9617C25.2762 42.603 25.4563 42.159 25.4563 41.6289V38.7525ZM21.8913 47.3656C21.8913 47.554 21.8299 47.7069 21.706 47.8243C21.582 47.9418 21.4203 48 21.221 48C21.0205 48 20.8588 47.9418 20.7349 47.8243C20.6121 47.7069 20.5496 47.554 20.5496 47.3656V36.2986C20.5496 36.1453 20.6023 36.0228 20.7091 35.929C20.8147 35.8343 20.9375 35.788 21.0798 35.788C21.2554 35.788 21.4441 35.9105 21.6445 36.1575C21.7857 36.3222 21.9086 36.4051 22.0152 36.4051C22.1316 36.4051 22.3029 36.334 22.526 36.193C23.0918 35.8523 23.5853 35.6811 24.009 35.6811C24.786 35.6811 25.4444 35.9753 25.9865 36.5639C26.5263 37.1523 26.798 37.887 26.798 38.7697V41.6289C26.798 42.5471 26.521 43.2884 25.9682 43.8535C25.4153 44.4179 24.7266 44.7003 23.9034 44.7003C23.3386 44.7003 22.803 44.5118 22.2975 44.1354C22.1908 44.0537 22.1089 44.0116 22.0496 44.0116C21.944 44.0116 21.8913 44.0773 21.8913 44.2065"></path>
<path fill="white" d="M33.2036 38.6994C33.2036 38.1939 33.0322 37.7641 32.6917 37.4112C32.3501 37.058 31.9383 36.8813 31.4555 36.8813C30.9619 36.8813 30.547 37.0513 30.2119 37.3931C29.8768 37.7345 29.7086 38.169 29.7086 38.6994V39.4579H33.2036V38.6994ZM29.7086 40.553V41.6285C29.7086 42.1703 29.8853 42.6179 30.2378 42.971C30.5913 43.3239 31.0201 43.5001 31.5267 43.5001C31.9977 43.5001 32.4858 43.3411 32.9913 43.0229C33.1917 42.8948 33.3685 42.8301 33.5205 42.8301C33.6734 42.8301 33.8093 42.8915 33.9266 43.0151C34.0442 43.1382 34.1034 43.2826 34.1034 43.4476C34.1034 43.6825 33.9558 43.8938 33.6627 44.0824C33.0031 44.4949 32.2907 44.6999 31.5267 44.6999C30.6204 44.6999 29.867 44.412 29.2679 43.8358C28.6676 43.259 28.3669 42.523 28.3669 41.6285V38.6994C28.3669 37.8402 28.6794 37.1225 29.3024 36.5463C29.9263 35.9694 30.6441 35.6806 31.4555 35.6806C32.2681 35.6806 32.9859 35.9694 33.6087 36.5463C34.2328 37.1225 34.5441 37.8402 34.5441 38.6994V39.8643C34.5441 40.0639 34.4795 40.2284 34.3502 40.359C34.2209 40.4881 34.0506 40.553 33.8383 40.553"></path>
<path fill="white" d="M37.6068 43.959C37.6068 44.1467 37.5443 44.2995 37.4214 44.4183C37.2976 44.5357 37.1358 44.5951 36.9354 44.5951C36.7361 44.5951 36.5744 44.5357 36.4505 44.4183C36.3276 44.2995 36.2651 44.1467 36.2651 43.959V36.2991C36.2651 36.1459 36.3211 36.0221 36.4333 35.9294C36.5442 35.8335 36.6714 35.787 36.8125 35.787C36.9893 35.787 37.1833 35.9176 37.3946 36.1749C37.5594 36.3635 37.6888 36.4586 37.7836 36.4586C37.8537 36.4586 38.0003 36.3819 38.2244 36.2287C38.5422 36.0283 38.7858 35.8895 38.9571 35.8128C39.1275 35.7361 39.3301 35.6988 39.566 35.6988C39.7537 35.6988 39.9098 35.7527 40.0338 35.8569C40.1567 35.9639 40.2192 36.1168 40.2192 36.3172C40.2192 36.5166 40.1599 36.6719 40.0425 36.784C39.925 36.8959 39.7654 36.952 39.566 36.952H39.3182C38.8483 36.952 38.4452 37.1136 38.1101 37.4369C37.774 37.7614 37.6068 38.2174 37.6068 38.8047"></path>
<path fill="white" d="M41.2049 36.8463C41.1099 36.7512 41.0637 36.6288 41.0637 36.4755C41.0637 36.3344 41.1099 36.2158 41.2049 36.1218C41.2985 36.0284 41.4042 35.9754 41.5227 35.9636L42.7049 35.8398H42.7222L42.9344 34.0044C42.9582 33.8751 43.0229 33.7632 43.1286 33.6694C43.2341 33.5746 43.3634 33.5278 43.5165 33.5278C43.6814 33.5278 43.8139 33.572 43.9141 33.6604C44.0145 33.748 44.064 33.8683 44.064 34.0229V35.8225H45.7408C45.9176 35.8225 46.0587 35.8751 46.1644 35.9808C46.2711 36.0874 46.3227 36.2275 46.3227 36.4043C46.3227 36.7933 46.1287 36.9874 45.7408 36.9874H44.064V42.3876C44.064 42.7294 44.1609 43.0053 44.3549 43.2173C44.5489 43.4287 44.787 43.5355 45.0694 43.5355C45.1406 43.5355 45.2667 43.5116 45.4498 43.4644C45.632 43.4168 45.7645 43.3941 45.8465 43.3941C46.1999 43.3941 46.3756 43.5882 46.3756 43.9763C46.3756 44.2112 46.2409 44.391 45.9703 44.5151C45.6999 44.6381 45.3755 44.7003 44.9993 44.7003C44.3408 44.7003 43.7966 44.4827 43.3667 44.0474C42.9367 43.6117 42.7222 43.0591 42.7222 42.3876V36.9874H41.5227C41.4042 36.9874 41.2985 36.9397 41.2049 36.8463Z"></path>
<path fill="white" d="M49.667 45.5118L50.1617 44.2055L47.5138 36.6692C47.4805 36.5636 47.4622 36.4702 47.4622 36.3872C47.4622 36.2339 47.529 36.0959 47.6637 35.9722C47.8005 35.8492 47.9622 35.7869 48.1486 35.7869C48.4795 35.7869 48.6918 35.9398 48.7855 36.2458L50.6392 41.9824L50.8503 42.6883L51.0627 41.9824L52.9152 36.2458C53.0101 35.9398 53.2213 35.7869 53.551 35.7869C53.7397 35.7869 53.9013 35.8492 54.036 35.9722C54.1718 36.0959 54.2396 36.2339 54.2396 36.3872C54.2396 36.4702 54.2203 36.5636 54.1859 36.6692L50.956 45.7942C50.7447 46.418 50.4354 46.9266 50.0292 47.321C49.6229 47.7154 49.1844 47.9129 48.7144 47.9129C48.5139 47.9129 48.3567 47.8571 48.237 47.7445C48.1217 47.6326 48.0623 47.4827 48.0623 47.2941C48.0623 46.93 48.2315 46.7179 48.5721 46.6598C49.0452 46.5647 49.4094 46.1833 49.667 45.5118Z"></path>
<path fill="white" d="M66.6326 41.0823C66.6326 42.1178 66.2739 42.9799 65.5562 43.6674C64.8385 44.3561 63.9676 44.7 62.9437 44.7C61.921 44.7 61.0492 44.3561 60.3326 43.6674C59.6137 42.9799 59.2549 42.1178 59.2549 41.0823V36.158C59.2549 35.0749 59.6289 34.1836 60.3757 33.4833C61.1235 32.784 62.0019 32.4338 63.0138 32.4338C63.8383 32.4338 64.6799 32.6922 65.5377 33.2109C65.8201 33.3746 65.9623 33.5804 65.9623 33.8279C65.9623 34.0048 65.9064 34.1484 65.7942 34.2603C65.6823 34.3724 65.5442 34.4283 65.3793 34.4283C65.25 34.4283 65.0678 34.3626 64.8319 34.2334C64.1735 33.8575 63.5678 33.6689 63.0138 33.6689C62.3672 33.6689 61.8079 33.9164 61.3381 34.4102C60.8671 34.9047 60.6311 35.4866 60.6311 36.158V41.0823C60.6311 41.7406 60.852 42.3029 61.2939 42.7677C61.7357 43.2321 62.2854 43.4648 62.9437 43.4648C63.6023 43.4648 64.1529 43.2354 64.5938 42.7762C65.0355 42.3173 65.2554 41.7524 65.2554 41.0823V39.1057H63.6852C63.5085 39.1057 63.364 39.0527 63.2531 38.9461C63.1409 38.8405 63.085 38.6928 63.085 38.5054C63.085 38.3168 63.1409 38.1703 63.2531 38.0634C63.364 37.959 63.5085 37.9051 63.6852 37.9051H65.9969C66.1736 37.9051 66.3245 37.97 66.4474 38.0991C66.5714 38.2283 66.6326 38.364 66.6326 38.5054"></path>
<path fill="white" d="M69.7983 43.959C69.7983 44.1467 69.7368 44.2995 69.6141 44.4183C69.4912 44.5357 69.3285 44.5951 69.129 44.5951C68.9286 44.5951 68.767 44.5357 68.6419 44.4183C68.5203 44.2995 68.4578 44.1467 68.4578 43.959V36.2991C68.4578 36.1459 68.5137 36.0221 68.6248 35.9294C68.7368 35.8335 68.8639 35.787 69.0052 35.787C69.1808 35.787 69.3759 35.9176 69.5871 36.1749C69.752 36.3635 69.8813 36.4586 69.9762 36.4586C70.0462 36.4586 70.1928 36.3819 70.417 36.2287C70.7338 36.0283 70.9784 35.8895 71.1498 35.8128C71.319 35.7361 71.5226 35.6988 71.7576 35.6988C71.9462 35.6988 72.1034 35.7527 72.2253 35.8569C72.3481 35.9639 72.4117 36.1168 72.4117 36.3172C72.4117 36.5166 72.3525 36.6719 72.235 36.784C72.1176 36.8959 71.958 36.952 71.7576 36.952H71.5119C71.0399 36.952 70.6379 37.1136 70.3027 37.4369C69.9676 37.7614 69.7983 38.2174 69.7983 38.8047"></path>
<path fill="white" d="M78.0676 38.7525C78.0676 38.2225 77.8941 37.7784 77.547 37.4204C77.199 37.0605 76.7797 36.8816 76.285 36.8816C75.7915 36.8816 75.3701 37.0605 75.0231 37.4204C74.676 37.7784 74.5026 38.2225 74.5026 38.7525V41.6289C74.5026 42.159 74.676 42.603 75.0231 42.9617C75.3701 43.3208 75.7915 43.5006 76.285 43.5006C76.7797 43.5006 77.199 43.3174 77.547 42.9533C77.8941 42.5879 78.0676 42.1472 78.0676 41.6289V38.7525ZM78.4728 36.555C79.0978 37.1372 79.4093 37.8697 79.4093 38.7525V41.6289C79.4093 42.5112 79.0978 43.2442 78.4728 43.8265C77.8498 44.4095 77.1203 44.7003 76.285 44.7003C75.4391 44.7003 74.7052 44.4157 74.0877 43.8445C73.4701 43.2733 73.1609 42.5353 73.1609 41.6289V38.7525C73.1609 37.8579 73.4701 37.1229 74.0877 36.5453C74.7052 35.969 75.4391 35.6811 76.285 35.6811C77.1203 35.6811 77.8498 35.972 78.4728 36.555Z"></path>
<path fill="white" d="M85.3377 42.9617C85.6666 42.6027 85.8316 42.1586 85.8316 41.6299V36.4231C85.8316 36.2347 85.8938 36.0818 86.0167 35.9644C86.1403 35.8457 86.3019 35.7863 86.5025 35.7863C86.7029 35.7863 86.8645 35.8457 86.9874 35.9644C87.1119 36.0818 87.1733 36.2347 87.1733 36.4231V44.0824C87.1733 44.2355 87.1224 44.3615 87.023 44.463C86.9227 44.5619 86.7967 44.6128 86.6439 44.6128C86.4911 44.6128 86.3019 44.4886 86.079 44.2407C85.9261 44.065 85.7968 43.9767 85.6909 43.9767C85.5842 43.9767 85.421 44.047 85.1963 44.1893C84.5965 44.5295 84.0728 44.7 83.625 44.7C82.896 44.7 82.2696 44.4091 81.7457 43.8269C81.222 43.2438 80.9609 42.5122 80.9609 41.6299V36.4231C80.9609 36.2347 81.0224 36.0818 81.1468 35.9644C81.2697 35.8457 81.4314 35.7863 81.6302 35.7863C81.8307 35.7863 81.994 35.8457 82.1167 35.9644C82.2396 36.0818 82.3019 36.2347 82.3019 36.4231V41.6299C82.3019 42.1469 82.4668 42.5887 82.7965 42.9529C83.1255 43.3183 83.5499 43.5006 84.0664 43.5006C84.5844 43.5006 85.0088 43.3204 85.3377 42.9617Z"></path>
<path fill="white" d="M93.7735 38.7525C93.7735 38.246 93.6053 37.8087 93.2699 37.4366C92.9353 37.0669 92.5086 36.8816 91.9912 36.8816C91.4723 36.8816 91.0456 37.0669 90.7109 37.4366C90.3755 37.8087 90.2081 38.246 90.2081 38.7525V41.6289C90.2081 42.1707 90.3876 42.6183 90.7464 42.9706C91.1054 43.3242 91.52 43.5006 91.9912 43.5006C92.4609 43.5006 92.8755 43.3208 93.2343 42.9617C93.5932 42.603 93.7735 42.159 93.7735 41.6289V38.7525ZM90.2081 47.3656C90.2081 47.554 90.1459 47.7069 90.0231 47.8243C89.8994 47.9418 89.7378 48 89.5374 48C89.3377 48 89.1752 47.9418 89.0523 47.8243C88.9278 47.7069 88.8665 47.554 88.8665 47.3656V36.2986C88.8665 36.1453 88.9198 36.0228 89.0248 35.929C89.1316 35.8343 89.2545 35.788 89.3959 35.788C89.5729 35.788 89.7612 35.9105 89.9609 36.1575C90.1031 36.3222 90.2259 36.4051 90.331 36.4051C90.449 36.4051 90.6203 36.334 90.8434 36.193C91.4076 35.8523 91.9022 35.6811 92.3259 35.6811C93.1034 35.6811 93.7612 35.9753 94.3029 36.5639C94.8436 37.1523 95.1151 37.887 95.1151 38.7697V41.6289C95.1151 42.5471 94.8379 43.2884 94.2851 43.8535C93.7322 44.4179 93.0435 44.7003 92.2207 44.7003C91.6557 44.7003 91.1199 44.5118 90.6139 44.1354C90.508 44.0537 90.4264 44.0116 90.3665 44.0116C90.2615 44.0116 90.2081 44.0773 90.2081 44.2065"></path>
<path fill="#00A098" d="M58.7952 26.0446H64.6134V0H58.7952V26.0446Z"></path>
<path fill="#00A098" d="M88.4389 16.5355C87.9612 17.5538 87.3041 18.3739 86.4708 18.9999C85.6366 19.6262 84.6498 20.0733 83.5093 20.3427C82.3689 20.6134 81.1363 20.7481 79.812 20.7481H79.6632H76.832V5.29714H80.2171C80.7052 5.29714 81.1815 5.32947 81.6519 5.37904C81.9792 5.41568 82.3034 5.46202 82.6218 5.52129C82.6429 5.5256 82.6647 5.52777 82.6865 5.53208C83.0139 5.59566 83.3379 5.66785 83.6572 5.7573C84.7475 6.06444 85.6981 6.52354 86.5079 7.13675C87.317 7.74994 87.9612 8.52911 88.4389 9.47316C88.9174 10.4172 89.1551 11.5272 89.1551 12.8021C89.1551 14.2723 88.9174 15.5181 88.4389 16.5355ZM93.8834 7.02575C93.0613 5.35857 91.9516 4.00391 90.5541 2.96178C89.1551 1.91858 87.5183 1.16529 85.6431 0.69865C83.7671 0.233087 81.7861 0.000305176 79.702 0.000305176H71.0945V26.0449H78.979H80.4747C82.4116 26.0449 84.2626 25.7636 86.0294 25.1978C87.7948 24.6353 89.3514 23.8065 90.7013 22.7149C92.0495 21.6255 93.122 20.2758 93.9197 18.669C94.7158 17.0634 95.1152 15.2056 95.1152 13.0964C95.1152 10.7179 94.7046 8.69399 93.8834 7.02575Z"></path>
<path fill="url(#paint0_linear_18378_6500)" d="M11.9223 0.228529L11.8632 0.239303C8.51589 0.887001 7.03188 4.20412 6.57925 5.40682L5.57271 8.503L0 26.0442H6.36156L12.6272 6.99101C13.4463 4.78176 14.4614 4.55329 14.9475 4.58994C13.5745 0.430069 12.207 0.222063 11.9223 0.228529Z"></path>
<path fill="#00A098" d="M24.6174 14.6773L21.6785 5.55246C21.6785 5.55246 21.0415 3.03607 19.0252 1.34842C19.0047 1.33225 18.9843 1.31609 18.9638 1.29777C18.8895 1.23634 18.8129 1.17706 18.7353 1.11994C16.8969 -0.208845 14.055 -0.0622782 12.6733 0.111233C12.2596 0.161879 11.9783 0.215766 11.8942 0.233007L11.8855 0.234089C11.8726 0.237322 11.864 0.238406 11.864 0.238406C11.864 0.238406 11.9417 0.229774 12.0192 0.241623C12.4459 0.29551 13.6949 0.794497 14.9472 4.58902C14.9818 4.69248 15.0152 4.79592 15.0486 4.90262L21.8412 26.0448H24.086H27.9679H28.2578"></path>
<path fill="url(#paint1_linear_18378_6500)" d="M42.7552 25.8161L42.8143 25.8051C46.1616 25.1576 47.6456 21.8404 48.0983 20.6377L49.1048 17.5414L54.6775 0.00012207H48.3148L42.0504 19.0536C41.2313 21.2628 40.216 21.4915 39.73 21.4549C41.1019 25.6143 42.4706 25.8224 42.7552 25.8161Z"></path>
<path fill="#00A098" d="M30.0621 11.3674L32.9999 20.4919C32.9999 20.4919 33.6368 23.0085 35.6542 24.6949C35.6747 24.7121 35.6953 24.7282 35.7157 24.7467C35.79 24.8081 35.8666 24.8675 35.9441 24.9243C37.7827 26.2533 40.6235 26.1069 42.0051 25.933C42.4198 25.8824 42.7001 25.8285 42.7853 25.8113L42.7939 25.8104C42.8068 25.8071 42.8155 25.8059 42.8155 25.8059C42.8155 25.8059 42.7369 25.8147 42.6592 25.8028C42.2335 25.7489 40.9845 25.2497 39.7322 21.4556C39.6978 21.352 39.6642 21.2484 39.6297 21.1418L32.8372 0H30.5935H26.7115H26.4207"></path>
<path fill="url(#paint2_linear_18378_6500)" d="M89.3837 7.41678C87.8771 6.38113 85.8361 5.84983 84.0847 5.57825C84.0774 5.57825 84.0685 5.5761 84.0629 5.57502C82.0576 5.2668 80.4357 5.2959 80.4357 5.2959L81.3051 5.34763C81.3051 5.34763 81.4626 5.35949 81.6525 5.37996H81.6502C81.9767 5.41445 82.3025 5.46079 82.6209 5.52113C82.6427 5.52436 82.6645 5.52869 82.6847 5.53192C83.0137 5.59551 83.337 5.66879 83.6555 5.75715C84.7466 6.06322 85.6972 6.5234 86.507 7.13551C87.3152 7.74873 87.9578 8.52895 88.4372 9.47195C88.9157 10.416 89.1549 11.527 89.1549 12.8008C89.1549 14.2734 88.9157 15.5182 88.4372 16.5357C87.9578 17.5529 87.3016 18.3755 86.4682 18.9993C85.6357 19.6252 84.6496 20.0728 83.5083 20.3423C82.3679 20.6124 81.1361 20.747 79.8118 20.747H79.6619L78.9766 26.0443H80.4734C82.41 26.0443 84.2625 25.7625 86.0278 25.198C87.7938 24.6344 89.3513 23.8067 90.6987 22.7153C92.0484 21.6244 93.1211 20.2752 93.9188 18.6684C94.7433 12.4949 92.3006 9.18639 89.3837 7.41678Z"></path>
</g>
<defs>
<linearGradient gradientUnits="userSpaceOnUse" y2="0.498998" x2="12.8376" y1="25.9593" x1="3.54247" id="paint0_linear_18378_6500">
<stop stop-color="#00A098" offset="0.739583"></stop>
<stop stop-color="#004C46" offset="1"></stop>
</linearGradient>
<linearGradient gradientUnits="userSpaceOnUse" y2="25.9593" x2="39.5106" y1="18.2808" x1="45.9767" id="paint1_linear_18378_6500">
<stop stop-color="#00A098"></stop>
<stop stop-color="#015650" offset="1"></stop>
</linearGradient>
<linearGradient gradientUnits="userSpaceOnUse" y2="5.7528" x2="85.1774" y1="19.8974" x1="86.794" id="paint2_linear_18378_6500">
<stop stop-color="#00A098"></stop>
<stop stop-color="#016962" offset="1"></stop>
</linearGradient>
<clipPath id="clip0_18378_6500">
<rect fill="white" height="48" width="95.1151"></rect>
</clipPath>
</defs>
</svg>
