<svg xmlns="http://www.w3.org/2000/svg" fill="none" viewBox="0 0 171 48" height="48" width="171">
<g clip-path="url(#clip0_18378_6956)">
<g clip-path="url(#clip1_18378_6956)">
<path fill="white" d="M43.6002 12.4094V35.7219H48.7217V20.9982L60.0719 35.7219H64.4551V12.4094H59.3798V26.815L48.3525 12.4094H43.6002ZM108.149 12.4094L98.3212 35.7219H103.581L105.75 30.5414H115.069L117.238 35.7219H122.59L112.809 12.4094H108.149ZM87.7557 13.5V17.9989H85.6327V22.3161H87.7557V30.6777C87.7557 34.7749 89.8977 35.9946 93.0156 35.9946C94.7259 35.9946 95.9571 35.6238 97.0294 34.9949V30.9504C96.289 31.3521 95.4313 31.5866 94.4913 31.5866C93.3533 31.5866 92.8766 31.0158 92.8766 29.8597V22.3161H97.0751V17.9989H92.8766V13.5H87.7557ZM75.8514 17.6808C70.6175 17.6808 66.9466 21.8526 66.9466 26.9059V26.9514C66.9466 32.37 70.957 36.1309 76.3589 36.1309C79.6108 36.1309 82.0212 34.8621 83.695 32.8135L80.7883 30.2687C79.3783 31.5593 78.1159 32.0865 76.4051 32.0865C74.1221 32.0865 72.5294 30.9122 72.0219 28.6328H84.5255C84.5646 28.1711 84.5721 27.6657 84.5721 27.2694C84.5721 22.2488 81.8532 17.6808 75.8514 17.6808ZM134.587 17.6808C131.936 17.6808 130.198 18.8933 128.957 20.5438V17.9989H123.882V40.9934H128.957V33.4044C130.164 34.8258 131.871 36.04 134.587 36.04C138.847 36.04 142.753 32.8208 142.753 26.9059V26.815C142.753 20.9018 138.782 17.6808 134.587 17.6808ZM155.534 17.6808C152.885 17.6808 151.191 18.8933 149.95 20.5438V17.9989H144.829V40.9934H149.95V33.4044C151.156 34.8258 152.815 36.04 155.534 36.04C159.793 36.04 163.7 32.8208 163.7 26.9059V26.815C163.7 20.9018 159.727 17.6808 155.534 17.6808ZM163.193 17.9989V18.5442H164.3V21.9526H164.9V18.5442H166.053V17.9989H163.193ZM166.792 17.9989V21.9526H167.391V18.6806L168.591 21.9526H168.96L170.16 18.6806V21.9526H170.76V17.9989H169.836L168.776 20.9982L167.714 17.9989H166.792ZM110.41 18.5442L113.501 26.0424H107.272L110.41 18.5442ZM75.8514 21.7253C77.996 21.7253 79.334 23.2013 79.6348 25.4517H71.9297C72.3319 23.1759 73.7346 21.7253 75.8514 21.7253ZM133.248 21.9526C135.627 21.9526 137.631 23.8757 137.631 26.815V26.9059C137.631 29.8798 135.627 31.7684 133.248 31.7684C130.87 31.7684 128.912 29.847 128.912 26.9059V26.815C128.912 23.8757 130.87 21.9526 133.248 21.9526ZM154.242 21.9526C156.625 21.9526 158.625 23.8757 158.625 26.815V26.9059C158.625 29.8798 156.625 31.7684 154.242 31.7684C151.865 31.7684 149.858 29.847 149.858 26.9059V26.815C149.858 23.8757 151.865 21.9526 154.242 21.9526Z"></path>
<path fill="white" d="M0.999756 12.4094V35.9492H12.2387V21.8251H18.661V35.9492H29.8996V12.4094H0.999756Z"></path>
</g>
</g>
<defs>
<clipPath id="clip0_18378_6956">
<rect fill="white" height="48" width="171"></rect>
</clipPath>
<clipPath id="clip1_18378_6956">
<rect transform="translate(0.999756 12)" fill="white" height="29.4023" width="170.533"></rect>
</clipPath>
</defs>
</svg>
