<svg xmlns="http://www.w3.org/2000/svg" fill="none" viewBox="0 0 61 48" height="48" width="61">
<g clip-path="url(#clip0_18378_7341)">
<g clip-path="url(#clip1_18378_7341)">
<path fill="#1F70C1" d="M-4.57764e-05 34.3289H11.7826V35.9941H-4.57764e-05V34.3289Z"></path>
<path fill="#1F70C1" d="M-4.57764e-05 31.1348H11.7826V32.8059H-4.57764e-05V31.1348Z"></path>
<path fill="#1F70C1" d="M3.36131 27.9466H8.41529V29.6177H3.36131V27.9466Z"></path>
<path fill="#1F70C1" d="M3.36131 24.7585H8.41529V26.4296H3.36131V24.7585Z"></path>
<path fill="#1F70C1" d="M3.36131 21.5703H8.41529V23.2414H3.36131V21.5703Z"></path>
<path fill="#1F70C1" d="M3.36131 18.3763H8.41529V20.0474H3.36131V18.3763Z"></path>
<path fill="#1F70C1" d="M11.7826 15.188H-3.05176e-05V16.8591H11.7826V15.188Z"></path>
<path fill="#1F70C1" d="M11.7826 12H0V13.6711H11.7826V12Z"></path>
<path fill="#1F70C1" d="M13.4633 32.8057H31.5844C31.8905 32.2902 32.1186 31.7272 32.2567 31.1346H13.4633V32.8057Z"></path>
<path fill="#1F70C1" d="M30.1739 24.7585H16.8306V26.4296H31.5845C31.2003 25.7896 30.7261 25.2266 30.1739 24.7585Z"></path>
<path fill="#1F70C1" d="M16.8306 21.5703V23.2414H30.1739C30.7381 22.7733 31.2123 22.2103 31.5845 21.5703H16.8306Z"></path>
<path fill="#1F70C1" d="M31.5845 15.1879H13.4633V16.859H32.2567C32.1007 16.2664 31.8726 15.7035 31.5845 15.1879Z"></path>
<path fill="#1F70C1" d="M26.0142 11.9999H13.4633V13.6711H30.3419C29.2135 12.6399 27.6829 11.9999 26.0142 11.9999Z"></path>
<path fill="#1F70C1" d="M21.8786 18.3762H16.8307V20.0473H21.8786V18.3762Z"></path>
<path fill="#1F70C1" d="M26.9326 20.0473H32.2147C32.3648 19.514 32.4428 18.951 32.4428 18.3762H26.9326V20.0473Z"></path>
<path fill="#1F70C1" d="M16.8306 27.9466H21.8786V29.6177H16.8306V27.9466Z"></path>
<path fill="#1F70C1" d="M26.9326 27.9466V29.6177H32.4428C32.4428 29.0429 32.3647 28.48 32.2147 27.9466H26.9326Z"></path>
<path fill="#1F70C1" d="M13.4633 35.9822L26.0142 36C27.6949 36 29.2135 35.36 30.3479 34.3289H13.4633V35.9822Z"></path>
<path fill="#1F70C1" d="M33.6673 34.3289H42.0826V35.9941H33.6673V34.3289Z"></path>
<path fill="#1F70C1" d="M33.6673 31.1348H42.0826V32.8059H33.6673V31.1348Z"></path>
<path fill="#1F70C1" d="M37.0286 27.9466H42.0826V29.6177H37.0286V27.9466Z"></path>
<path fill="#1F70C1" d="M37.0286 24.7585H42.0826V26.4296H37.0286V24.7585Z"></path>
<path fill="#1F70C1" d="M44.4236 15.1879H33.6673V16.859H45.0058L44.4236 15.1879Z"></path>
<path fill="#1F70C1" d="M43.3071 11.9999H33.6673V13.6711H43.8893L43.3071 11.9999Z"></path>
<path fill="#1F70C1" d="M52.1786 34.3289H60.5999V35.9941H52.1786V34.3289Z"></path>
<path fill="#1F70C1" d="M52.1786 31.1348H60.5999V32.8059H52.1786V31.1348Z"></path>
<path fill="#1F70C1" d="M52.1786 27.9466H57.2326V29.6177H52.1786V27.9466Z"></path>
<path fill="#1F70C1" d="M52.1786 24.7585H57.2326V26.4296H52.1786V24.7585Z"></path>
<path fill="#1F70C1" d="M52.1786 23.2414H57.2326V21.5703H52.1786H47.6048L47.1306 22.9215L46.6564 21.5703H42.0826H37.0286V23.2414H42.0826V21.7066L42.6168 23.2414H51.6444L52.1786 21.7066V23.2414Z"></path>
<path fill="#1F70C1" d="M57.2326 18.3762H48.7213L48.139 20.0473H57.2326V18.3762Z"></path>
<path fill="#1F70C1" d="M50.9601 11.9999L50.3779 13.6711H60.5999V11.9999H50.9601Z"></path>
<path fill="#1F70C1" d="M47.1306 35.9822L47.7128 34.3289H46.5484L47.1306 35.9822Z"></path>
<path fill="#1F70C1" d="M46.0142 32.8059H48.2471L48.8473 31.1348H45.42L46.0142 32.8059Z"></path>
<path fill="#1F70C1" d="M44.8797 29.6177H49.3815L49.9757 27.9466H44.2855L44.8797 29.6177Z"></path>
<path fill="#1F70C1" d="M43.7512 26.4296H50.5159L51.0922 24.7585H43.169L43.7512 26.4296Z"></path>
<path fill="#1F70C1" d="M37.0286 20.0473H46.1222L45.54 18.3762H37.0286V20.0473Z"></path>
<path fill="#1F70C1" d="M49.2614 16.859H60.5999V15.1879H49.8377L49.2614 16.859Z"></path>
</g>
</g>
<defs>
<clipPath id="clip0_18378_7341">
<rect fill="white" height="48" width="60.6"></rect>
</clipPath>
<clipPath id="clip1_18378_7341">
<rect transform="translate(0 12)" fill="white" height="24" width="60.6"></rect>
</clipPath>
</defs>
</svg>
