<svg xmlns="http://www.w3.org/2000/svg" fill="none" viewBox="0 0 195 48" height="48" width="195">
<g clip-path="url(#clip0_18380_8019)">
<g clip-path="url(#clip1_18380_8019)">
<mask height="24" width="195" y="12" x="0" maskUnits="userSpaceOnUse" style="mask-type:luminance" id="mask0_18380_8019">
<path fill="white" d="M194.863 12H0V35.9268H194.863V12Z"></path>
</mask>
<g mask="url(#mask0_18380_8019)">
<path fill="white" d="M11.0375 12.2236L0 35.5443H3.58698L6.38253 29.6216H18.5987L21.3432 35.5443H25.0621L14.0416 12.2236H11.0375ZM17.2073 26.5911H7.75691L12.497 16.4745L17.2073 26.5911Z"></path>
<path fill="white" d="M48.8056 25.7857C48.8056 30.305 46.4398 32.7945 42.125 32.7945C37.8104 32.7945 35.3808 30.183 35.3808 25.6271V12.3823H31.9385V25.806C31.9385 32.042 35.8233 35.9145 42.0739 35.9145C48.4567 35.9145 52.2479 32.0664 52.2479 25.6148V12.3823H48.8056V25.7857Z"></path>
<path fill="white" d="M80.6451 29.703C78.5941 31.5782 76.5645 32.8271 73.3604 32.8271C68.5055 32.8271 64.6759 28.9342 64.6759 23.9633V23.8982C64.6759 18.8827 68.4034 15.0955 73.3477 15.0955C76.0241 15.0955 78.1431 15.9864 80.4323 18.065L80.7259 18.3294L83.0789 15.9132L82.8023 15.661C80.6961 13.7613 78.0963 11.9999 73.3902 11.9999C66.5269 11.9999 61.1443 17.2555 61.1443 23.9633V24.0284C61.1443 30.8094 66.3694 35.9267 73.2924 35.9267C78.1176 35.9267 80.8791 33.8928 82.947 31.8589L83.2278 31.5864L80.9259 29.4264L80.6451 29.703Z"></path>
<path fill="white" d="M89.8958 15.482H97.759V35.5443H101.231V15.482H109.099V12.3823H89.8958V15.482Z"></path>
<path fill="white" d="M124.153 12.2236L113.115 35.5443H116.702L119.481 29.6216H131.714L134.459 35.5443H138.182L127.144 12.2236H124.153ZM130.323 26.5911H120.877L125.612 16.4745L130.323 26.5911Z"></path>
<path fill="white" d="M163.078 29.6135L148.913 12.3823H145.841V35.5443H149.215V17.8942L163.75 35.5443H166.452V12.3823H163.078V29.6135Z"></path>
<path fill="white" d="M180.409 32.4772V25.3993H193.191V22.3362H180.409V15.4494H194.697V12.3823H176.966V35.5443H194.863V32.4772H180.409Z"></path>
</g>
</g>
</g>
<defs>
<clipPath id="clip0_18380_8019">
<rect fill="white" height="48" width="194.88"></rect>
</clipPath>
<clipPath id="clip1_18380_8019">
<rect transform="translate(0 12)" fill="white" height="24" width="194.88"></rect>
</clipPath>
</defs>
</svg>
