<svg xmlns="http://www.w3.org/2000/svg" fill="none" viewBox="0 0 208 48" height="48" width="208">
<g clip-path="url(#clip0_19327_1097)">
<g clip-path="url(#clip1_19327_1097)">
<mask height="42" width="208" y="3" x="0" maskUnits="userSpaceOnUse" style="mask-type:luminance" id="mask0_19327_1097">
<path fill="white" d="M0 3.60956H207.983V44.3905H0V3.60956Z"></path>
</mask>
<g mask="url(#mask0_19327_1097)">
<path fill="#13AA65" d="M42.2491 25.4024C42.2491 13.3662 32.7856 3.60956 21.1245 3.60956C9.46436 3.60956 1.27038e-05 13.3716 1.27038e-05 25.4024C-0.00406539 29.2286 0.973771 32.9877 2.83383 36.2986H39.4161C41.2753 32.9877 42.2531 29.2286 42.2491 25.4024ZM61.335 12.0915H65.9958V21.8794H76.2567V12.092H80.9162V36.305H76.2567V26.446H65.9958V36.3045H61.335V12.0915ZM99.7085 29.3808H88.0071C88.3755 31.7674 90.4884 32.5291 92.2986 32.5291C94.1768 32.5291 95.8202 31.7674 96.9272 30.2105L99.7094 33.047C97.8652 35.3997 95.2516 36.6793 92.2664 36.6793C87.7728 36.6793 83.3476 33.7399 83.3476 27.6164C83.3476 21.5681 87.6731 18.4158 91.9982 18.4158C96.1238 18.4158 99.8453 21.3221 99.8453 27.1673C99.8403 27.9071 99.7946 28.6461 99.7085 29.3808ZM91.8305 22.3946C89.6827 22.3946 88.2758 23.8115 88.0071 25.8179H95.5157C95.3173 23.6044 93.8383 22.3946 91.8305 22.3946ZM135.654 21.217V12.0911H140.214V36.3045H135.689V34.159C134.481 35.6815 132.773 36.6842 130.359 36.6842C126.067 36.6842 121.808 33.6076 121.808 27.5185C121.808 21.4702 125.965 18.4207 130.156 18.4207C132.603 18.4158 134.582 19.4185 135.654 21.2165V21.217ZM135.621 27.5462C135.621 23.7413 133.173 22.3584 130.928 22.3584C128.311 22.3584 126.334 24.1912 126.334 27.5122C126.334 30.7284 128.245 32.7348 130.994 32.7348C133.508 32.7362 135.621 31.0402 135.621 27.5471V27.5462ZM161.837 29.519L165.157 18.8671H170.221L163.947 36.2995H159.627L155.938 26.0953L152.284 36.2995H147.964L141.761 18.8671H146.79L150.11 29.4842L153.731 18.8671H158.154L161.837 29.519ZM207.984 35.6466C207.984 41.3528 203.623 44.395 199.132 44.395C195.308 44.395 191.789 42.2178 190.681 38.0658L194.774 36.5442C195.342 39.2086 197.221 40.3853 199.3 40.3853C201.681 40.3853 203.491 38.9317 203.491 35.9914V33.4671C202.519 35.1264 200.575 36.1292 198.73 36.1292C195.21 36.1292 191.857 33.7775 191.857 29.0387V18.8707H196.416V28.4202C196.416 30.6337 197.524 32.1553 199.708 32.1553C202.02 32.1553 203.429 30.322 203.429 27.4175V18.8739H207.99L207.984 35.6466ZM115.075 18.8666V20.975C114.034 19.2123 112.222 18.4158 110.044 18.4158C105.724 18.4158 101.294 21.564 101.294 27.6472C101.294 33.4589 105.383 36.6747 109.609 36.6747C111.974 36.6747 113.907 35.6498 115.075 34.1984V36.295H119.601V18.8666H115.075ZM110.24 32.6324C107.859 32.6324 105.817 30.6958 105.817 27.5475C105.817 24.3313 107.928 22.3946 110.343 22.3946C112.791 22.3946 114.937 24.3652 114.937 27.4786C114.939 30.6605 112.694 32.632 110.246 32.632L110.24 32.6324ZM183.753 18.8666V20.975C182.714 19.2123 180.902 18.4158 178.724 18.4158C174.404 18.4158 169.974 21.564 169.974 27.6472C169.974 33.4589 174.063 36.6747 178.289 36.6747C180.655 36.6747 182.587 35.6498 183.753 34.1984V36.295H188.279V18.8666H183.753ZM178.925 32.6324C176.544 32.6324 174.503 30.6958 174.503 27.5475C174.503 24.3313 176.613 22.3946 179.028 22.3946C181.476 22.3946 183.622 24.3652 183.622 27.4786C183.619 30.6605 181.369 32.6324 178.925 32.6324Z"></path>
</g>
</g>
</g>
<defs>
<clipPath id="clip0_19327_1097">
<rect fill="white" height="48" width="207.983"></rect>
</clipPath>
<clipPath id="clip1_19327_1097">
<rect transform="translate(0 3.60956)" fill="white" height="40.7809" width="207.983"></rect>
</clipPath>
</defs>
</svg>
