<svg xmlns="http://www.w3.org/2000/svg" fill="none" viewBox="0 0 156 48" height="48" width="156">
<g clip-path="url(#clip0_18378_6865)">
<g clip-path="url(#clip1_18378_6865)">
<mask height="48" width="48" y="0" x="0" maskUnits="userSpaceOnUse" style="mask-type:luminance" id="mask0_18378_6865">
<path fill="white" d="M0 0.688293H47.6871V47.9803H0V0.688293Z"></path>
</mask>
<g mask="url(#mask0_18378_6865)">
<path fill="white" d="M23.6999 19.7717C23.1282 19.7717 22.5899 20.01 22.1442 20.4574C20.7273 21.8854 20.4496 25.1546 20.4642 27.6454C20.495 32.8637 22.1699 35.148 23.2893 35.4111L23.3785 35.4309L23.5653 35.4429C25.697 35.4429 26.2413 29.7626 26.3579 28.0217C26.5825 24.6334 26.5773 20.0957 23.9485 19.7872C23.866 19.7773 23.783 19.7721 23.6999 19.7717ZM23.8456 12.0086C20.5199 12.0086 17.4848 13.2772 15.2965 15.5829C12.6308 18.3874 11.357 22.5711 11.6133 27.6797C11.9176 33.7449 14.1539 38.7626 17.9108 41.8071L18.2853 42.1114C19.7099 41.5946 21.1876 40.3937 22.1828 39.0283L22.649 38.3897L22.0122 37.9209C20.5508 36.8443 19.4056 35.2449 18.611 33.1637C17.6965 30.774 16.8762 23.2449 19.4399 19.5129C20.4916 17.9803 22.013 17.1712 23.8396 17.1712L23.9768 17.1729C27.4448 17.2449 29.1608 19.9886 29.0768 25.3277C29.0082 29.6854 28.5359 32.4009 27.335 35.3434L26.8833 36.4474C26.8833 36.4474 27.5416 36.6429 29.2448 36.1766C33.0179 35.0743 35.807 30.1732 35.7316 24.7783C35.6639 19.902 32.4265 12.1251 24.023 12.0103L23.8456 12.0086ZM25.0345 39.9874C24.2802 41.166 23.3939 42.1971 22.4288 43.0071L21.3805 43.8849C21.3805 43.8849 22.0662 44.238 22.7288 44.4077C24.3162 44.8963 25.7845 45.0806 27.4233 45.0806C28.2539 45.0806 29.0973 45.018 29.9305 44.8954C36.8528 43.866 44.2962 36.528 44.7676 26.0289C45.0419 19.9277 43.0533 14.2809 39.1705 10.128C35.3468 6.03601 30.0676 3.71401 24.305 3.59058L23.8465 3.58629C12.3462 3.58544 3.14475 12.6369 2.90047 24.1911C2.77189 30.1894 4.65418 35.6271 8.06218 39.1123C9.0779 40.1529 10.4622 41.148 11.4633 41.634C13.4485 42.57 14.5919 42.6051 14.5919 42.6051C14.5919 42.6051 13.6216 41.634 12.8545 40.6286C10.4365 37.3354 8.97247 32.8029 8.72304 27.8246C8.34932 20.3469 10.9499 15.9523 13.1982 13.584C15.9393 10.698 19.7202 9.10972 23.8456 9.10972H24.0702C29.8482 9.19029 33.3136 12.216 35.201 14.7411C37.2985 17.544 38.579 21.2812 38.6279 24.7372C38.7205 31.4974 35.1162 37.4777 30.0565 38.9571C28.9379 39.2863 27.8528 39.4517 26.831 39.4517C26.5465 39.4517 26.2636 39.4389 25.9885 39.4131L25.4699 39.3651L25.0345 39.9874ZM27.4079 47.9803C24.0308 47.9803 20.7779 47.0914 18.005 45.4089L17.7488 45.2529L17.4539 45.306C17.0579 45.3771 16.6559 45.4277 16.2453 45.4586C15.983 45.4783 15.7113 45.4886 15.4448 45.4886C12.0899 45.4886 8.73332 43.944 5.99304 41.1403C2.04418 37.1031 -0.137248 30.9043 0.00589479 24.1311C0.285323 10.9852 10.7502 0.688293 23.8319 0.688293C24.0093 0.688293 24.1868 0.690008 24.3659 0.693436C30.9136 0.834008 36.923 3.48086 41.2859 8.14801C45.7053 12.8743 47.969 19.2703 47.6588 26.1583C47.1008 38.604 38.3262 46.5771 30.3548 47.7609C29.3791 47.9054 28.3942 47.9788 27.4079 47.9803Z" clip-rule="evenodd" fill-rule="evenodd"></path>
</g>
<path fill="white" d="M62.8628 14.5783V31.3329H69.0574V35.5586H58.3723V14.5783H62.8628ZM73.7863 19.014C72.3788 19.014 71.2423 17.8457 71.2423 16.4674C71.2423 15.0874 72.3788 13.9192 73.7863 13.9192C75.192 13.9192 76.3303 15.0883 76.3303 16.4674C76.3303 17.8457 75.1928 19.0132 73.7863 19.0132V19.014ZM71.6005 35.5586H75.972V20.7514H71.6005V35.5586ZM79.1348 20.7523V20.0923C79.1348 16.1074 81.4988 13.8292 85.212 13.8292C86.1994 13.8292 87.0668 14.0092 87.6351 14.3092V18.0249C87.1868 17.7849 86.6477 17.6357 85.9603 17.6357C84.5528 17.6357 83.4745 18.3549 83.4745 20.1232V20.7523H87.3068V24.3489H83.4745V35.5586H79.1348V20.7523ZM102.871 32.022C101.643 34.4494 99.2485 35.9477 96.0163 35.9477C91.4065 35.9477 88.1734 32.742 88.1734 28.1563C88.1734 23.6906 91.4665 20.3632 95.8371 20.3632C100.297 20.3632 103.38 23.6297 103.38 28.2754C103.38 28.7846 103.35 29.1746 103.32 29.3546H92.4548C92.6048 31.0929 94.1905 32.3512 96.0163 32.3512C97.6328 32.3512 98.502 31.6629 99.1894 30.5529L102.871 32.022ZM99.1003 26.5072C98.9203 24.9189 97.5737 23.7797 95.8071 23.7797C94.0705 23.7797 92.664 25.0989 92.4848 26.5072H99.1003ZM114.739 20.8132C114.739 19.5532 113.721 18.564 112.254 18.564C110.668 18.564 109.62 19.764 109.59 21.4723H105.339C105.369 17.1857 108.213 14.6083 112.314 14.6083C116.265 14.6083 119.139 17.0366 119.109 20.304C119.109 22.1614 118.241 23.6297 116.625 24.5889C118.749 25.488 119.976 27.1663 119.976 29.4437C119.976 33.2803 116.805 35.9486 112.433 35.9486C107.913 35.9486 104.95 33.2212 104.89 28.6654H109.231C109.321 30.4929 110.607 31.902 112.493 31.902C114.259 31.902 115.517 30.8529 115.517 29.2046C115.517 27.6163 114.171 26.5672 112.195 26.5672H111.236V23.1797H112.134C113.571 23.1797 114.739 22.1006 114.739 20.8132ZM129.142 35.9486C124.683 35.9486 121.329 32.7412 121.329 28.4246C121.329 26.5672 122.049 24.468 123.395 22.3714L128.155 14.9683H133.243L128.634 21.6514C129.112 21.4414 129.711 21.3823 130.13 21.3823C134.081 21.3823 136.954 24.4989 136.954 28.3654C136.954 32.6812 133.572 35.9486 129.142 35.9486ZM129.142 25.0989C127.197 25.0989 125.67 26.5963 125.67 28.4846C125.67 30.4037 127.167 31.932 129.112 31.932C131.058 31.932 132.615 30.4037 132.615 28.5154C132.615 26.5963 131.058 25.0989 129.142 25.0989Z" clip-rule="evenodd" fill-rule="evenodd"></path>
<mask height="22" width="18" y="14" x="138" maskUnits="userSpaceOnUse" style="mask-type:luminance" id="mask1_18378_6865">
<path fill="white" d="M138.18 14.6083H155.781V35.9477H138.18V14.6083Z"></path>
</mask>
<g mask="url(#mask1_18378_6865)">
<path fill="white" d="M146.98 14.6083C152.787 14.6083 155.781 19.674 155.781 25.278C155.781 30.8828 152.787 35.9486 146.98 35.9486C141.173 35.9477 138.18 30.882 138.18 25.278C138.18 19.674 141.173 14.6083 146.98 14.6083ZM146.98 18.7748C143.957 18.7748 142.641 21.9814 142.641 25.278C142.641 28.5754 143.957 31.782 146.98 31.782C150.003 31.782 151.32 28.5754 151.32 25.278C151.32 21.9814 150.003 18.7748 146.98 18.7748Z" clip-rule="evenodd" fill-rule="evenodd"></path>
</g>
</g>
</g>
<defs>
<clipPath id="clip0_18378_6865">
<rect fill="white" height="48" width="156"></rect>
</clipPath>
<clipPath id="clip1_18378_6865">
<rect fill="white" height="48" width="156"></rect>
</clipPath>
</defs>
</svg>
