<svg xmlns="http://www.w3.org/2000/svg" fill="none" viewBox="0 0 132 48" height="48" width="132">
<g clip-path="url(#clip0_18378_6898)">
<g clip-path="url(#clip1_18378_6898)">
<path fill="white" d="M-0.467285 35.949H7.49678V35.1025H6.89875C5.7347 35.1025 5.45438 34.7849 5.45438 33.6236V23.1231C6.266 21.7482 7.35795 20.8671 8.73291 20.8671C10.4603 20.8671 11.5175 22.1353 11.5175 24.5328V33.6263C11.5175 34.7902 11.2345 35.1052 10.1079 35.1052H9.47246V35.9516H17.2603V35.1052H16.697C15.5329 35.1052 15.2526 34.7875 15.2526 33.6263V24.143C15.2526 23.8253 15.2526 23.5076 15.2179 23.1925C15.9922 21.7829 17.1562 20.8671 18.5311 20.8671C20.2586 20.8671 21.3158 22.1353 21.3158 24.5328V33.6263C21.3158 34.7902 21.0328 35.1052 19.9061 35.1052H19.2706V35.9516H27.0586V35.1052H26.53C25.3312 35.1052 25.0509 34.7875 25.0509 33.6263V24.143C25.0509 20.5841 23.0432 18.6111 20.1171 18.6111C17.9331 18.6111 16.0295 19.8099 15.007 22.2047C14.4089 19.8793 12.6469 18.6111 10.3188 18.6111C8.239 18.6111 6.4422 19.7378 5.45438 21.9938V19.033H-0.467285V19.8793H0.237547C1.4363 19.8793 1.71662 20.197 1.71662 21.3584V33.6236C1.71662 34.7875 1.43362 35.1025 0.237547 35.1025H-0.467285V35.949ZM31.7441 16.2136C33.0123 16.2136 34.0695 15.1564 34.0695 13.8882C34.0695 12.6201 33.0123 11.5628 31.7441 11.5628C30.476 11.5628 29.4187 12.6201 29.4187 13.8882C29.4187 15.1564 30.476 16.2136 31.7441 16.2136ZM27.7981 35.949H35.6207V35.1025H35.0921C33.928 35.1025 33.6476 34.7849 33.6476 33.6236V19.033H27.726V19.8793H28.4308C29.6295 19.8793 29.9099 20.197 29.9099 21.3584V33.6236C29.9099 34.7875 29.6269 35.1025 28.4308 35.1025H27.7955V35.949H27.7981ZM41.3315 26.0119H43.5874C43.024 25.6594 42.8132 25.1655 42.5302 24.2498L41.6838 21.1127C41.2967 19.7031 40.979 19.033 39.4278 19.033H36.1867V19.8793H36.6459C37.5962 19.8793 37.7031 20.2317 37.9862 21.289L38.7257 24.0389C39.1128 25.3791 39.7135 26.0119 41.3341 26.0119H41.3315ZM46.5483 26.0119H48.8042C50.4248 26.0119 50.9881 25.3764 51.378 24.0389L52.1175 21.289C52.4004 20.2317 52.5393 19.8793 53.4578 19.8793H53.917V19.033H50.7105C49.1245 19.033 48.8069 19.6684 48.4544 21.1127L47.6081 24.2498C47.3251 25.2002 47.1115 25.6594 46.5483 26.0119ZM43.5874 28.9727H46.5483V26.0119H43.5874V28.9727ZM36.1867 35.9516H39.4278C40.979 35.9516 41.2967 35.2815 41.6838 33.8718L42.5302 30.7348C42.8132 29.819 43.024 29.3251 43.5874 28.9727H41.3315C39.7108 28.9727 39.1101 29.6082 38.7231 30.9458L37.9835 33.6957C37.7005 34.7529 37.5962 35.1052 36.6433 35.1052H36.1841V35.9516H36.1867ZM50.7052 35.9516H53.9116V35.1052H53.4525C52.5366 35.1052 52.3951 34.7529 52.1122 33.6957L51.3727 30.9458C50.9854 29.6055 50.4222 28.9727 48.7989 28.9727H46.5483C47.1115 29.3251 47.3171 29.7843 47.6002 30.7348L48.4464 33.8718C48.7989 35.3161 49.1165 35.9516 50.7025 35.9516H50.7052ZM54.3708 43H62.5458V42.1536H61.6994C60.5727 42.1536 60.2897 41.8359 60.2897 40.6745V33.9439C61.3123 35.4603 63.0396 36.3762 65.0821 36.3762C68.9239 36.3762 71.989 32.9934 71.989 27.1439C71.989 21.8576 69.1002 18.6165 65.3625 18.6165C63.1785 18.6165 61.3444 19.8846 60.287 22.1406V19.0383H54.3655V19.8846H55.0702C56.2343 19.8846 56.5493 20.2023 56.5493 21.3637V40.6718C56.5493 41.8359 56.2317 42.1509 55.0702 42.1509H54.3655V42.9973L54.3708 43ZM64.0276 20.7977C66.3182 20.7977 68.1872 22.9469 68.1872 27.2106C68.1872 31.8615 66.4597 34.4004 64.0997 34.4004C62.5831 34.4004 61.2455 33.5888 60.2924 32.1791V23.4382C61.2082 21.7108 62.5137 20.795 64.0276 20.795V20.7977ZM77.5609 36.3041C79.8515 36.3041 81.6831 35.2121 83.0579 32.7452V33.1323C83.0579 35.2467 84.3982 36.1626 86.6168 36.1626C87.287 36.1626 88.1334 36.0931 88.6966 35.9168V35.0359C88.4136 35.1052 88.2027 35.1427 87.9919 35.1427C87.1108 35.1427 86.8278 34.614 86.8278 33.7676V24.7437C86.8278 20.5841 84.5024 18.6111 80.591 18.6111C77.9826 18.6111 75.4463 19.8099 73.8257 21.078L74.3891 22.0659C76.0818 20.9018 77.7371 20.2344 79.5338 20.2344C81.8592 20.2344 83.0579 21.5025 83.0579 24.4634V25.2376L78.7222 26.9303C74.7762 28.5508 73.3292 30.0674 73.3292 32.3581C73.3292 34.6487 74.9497 36.3041 77.5581 36.3041H77.5609ZM77.0322 31.4396C77.0322 29.6776 78.0547 28.4093 80.1345 27.4936L83.0606 26.2254V31.7226C81.9688 33.239 80.7006 34.1201 79.3256 34.1201C77.9507 34.1201 77.0348 33.1696 77.0348 31.4422L77.0322 31.4396ZM89.4016 35.9516H97.4377V35.1052H96.7676C95.6035 35.1052 95.3231 34.7875 95.3231 33.6263V23.1578C96.1348 21.7482 97.3308 20.8671 98.7405 20.8671C100.572 20.8671 101.736 22.1353 101.736 24.5328V33.6263C101.736 34.7902 101.453 35.1052 100.326 35.1052H99.6562V35.9516H107.655V35.1052H106.95C105.751 35.1052 105.471 34.7875 105.471 33.6263V24.143C105.471 20.5841 103.357 18.6111 100.361 18.6111C98.1773 18.6111 96.343 19.7378 95.3205 21.9938V19.033H89.3989V19.8793H90.1036C91.3024 19.8793 91.5827 20.197 91.5827 21.3584V33.6236C91.5827 34.7875 91.2997 35.1025 90.1036 35.1025H89.3989V35.949L89.4016 35.9516ZM116.818 36.3735C119.143 36.3735 121.33 35.3161 122.916 34.048L122.387 33.2738C120.977 34.2964 119.392 34.7529 117.913 34.7529C114.319 34.7529 112.204 32.2166 112.204 27.2827V26.6473H123.34C123.271 21.8897 120.345 18.6485 116.081 18.6485C111.817 18.6485 108.397 22.4904 108.397 27.5657C108.397 33.1349 111.569 36.3762 116.821 36.3762L116.818 36.3735ZM116.113 19.5269C118.228 19.5269 119.53 21.8176 119.744 25.6942H112.274C112.592 21.7829 114.071 19.5269 116.116 19.5269H116.113ZM124.112 35.949H132.287V35.1025H131.475C130.311 35.1025 130.031 34.7849 130.031 33.6236V11.9846H124.109V12.831H124.814C125.978 12.831 126.293 13.1487 126.293 14.31V33.6236C126.293 34.7875 125.975 35.1025 124.814 35.1025H124.109V35.949H124.112Z"></path>
</g>
</g>
<defs>
<clipPath id="clip0_18378_6898">
<rect fill="white" height="48" width="132"></rect>
</clipPath>
<clipPath id="clip1_18378_6898">
<rect transform="translate(-0.467285 11.5628)" fill="white" height="31.4372" width="133.294"></rect>
</clipPath>
</defs>
</svg>
