<svg xmlns="http://www.w3.org/2000/svg" fill="none" viewBox="0 0 117 48" height="48" width="117">
<g clip-path="url(#clip0_18378_6702)">
<g clip-path="url(#clip1_18378_6702)">
<path fill="white" d="M2.88929 12.298C2.57688 12.0989 2.23417 12 1.7982 12C1.33075 12 0.956557 12.0989 0.675629 12.298C0.395859 12.4958 0.239655 12.7604 0.239655 13.0917V34.8762C0.239655 35.1407 0.395859 35.4054 0.675629 35.6366C0.988033 35.8678 1.33075 36 1.76672 36C2.15723 36.0013 2.53841 35.8738 2.85782 35.6366C3.16906 35.4054 3.32527 35.1407 3.32527 34.8762V13.0917C3.35674 12.7604 3.20053 12.4958 2.88929 12.298ZM5.47598 23.7354C5.28947 23.9345 5.19505 24.199 5.258 24.5946C5.28947 24.9915 5.44451 25.355 5.75691 25.6864C6.03668 26.0165 6.3794 26.2477 6.75359 26.3478C7.12778 26.4467 7.40871 26.38 7.59523 26.2155L9.24704 25.1238V34.8762C9.24704 35.1407 9.40317 35.4054 9.68423 35.6366C9.96395 35.8678 10.3381 36 10.774 36C11.2112 36 11.5854 35.8678 11.8967 35.6366C12.2078 35.4054 12.3641 35.1407 12.3641 34.8762V21.719C12.3641 21.3888 12.2078 21.1576 11.8967 20.9586C11.5854 20.7608 11.2112 20.6618 10.7438 20.6618C10.2763 20.6618 9.9336 20.7608 9.6527 20.9586L5.47598 23.7354ZM17.7869 31.4378C17.7869 32.0993 17.9746 32.6285 18.3173 32.9586C18.66 33.2899 19.1275 33.4878 19.6882 33.4878C20.4366 33.4878 21.1535 33.1576 21.8086 32.4962C22.4941 31.8347 22.8367 31.1078 22.8367 30.3474V29.1902H22.0883C21.2164 29.1902 20.4995 29.2235 19.9376 29.3225C19.3769 29.4214 18.878 29.6205 18.4421 29.9839C18.0061 30.3141 17.7869 30.8098 17.7869 31.4378ZM14.671 31.8347C14.671 30.1483 15.2632 28.9923 16.4476 28.331C17.6319 27.6695 19.3152 27.3394 21.5591 27.3394H22.8367V26.7434C22.8367 25.7853 22.5873 24.9915 22.1198 24.2979C21.6524 23.6031 20.904 23.273 19.9376 23.273C19.096 23.273 18.3488 23.4386 17.7252 23.8022C17.1015 24.1322 16.7273 24.3314 16.6656 24.3314C16.3229 24.3314 16.0733 24.1657 15.8553 23.8022C15.6373 23.4709 15.543 23.0739 15.543 22.645C15.543 22.1158 16.0104 21.62 16.9768 21.2232C17.9117 20.8263 18.941 20.6285 20.0006 20.6285C22.0266 20.6285 23.5221 21.2232 24.4886 22.3803C25.4549 23.5376 25.9538 24.9915 25.9538 26.7434V34.6115C25.9538 34.9095 25.7977 35.1742 25.5167 35.3719C25.2369 35.6031 24.8628 35.7021 24.457 35.7021C24.0526 35.7021 23.7401 35.6031 23.4604 35.3719C23.1794 35.1407 23.0548 34.9095 23.0548 34.6115V33.5211C21.7456 35.1407 20.2501 35.9666 18.6286 35.9666C17.4757 35.9666 16.5408 35.6031 15.8239 34.9095C15.0453 34.2147 14.671 33.1898 14.671 31.8347ZM28.6034 29.7527V26.9091C28.6034 25.0583 29.1012 23.5376 30.1305 22.3803C31.1587 21.2232 32.6543 20.6618 34.6803 20.6618C35.9591 20.6618 37.0187 20.893 37.8906 21.3554C38.7637 21.8178 39.1997 22.347 39.1997 22.943C39.1997 23.3064 39.0761 23.6698 38.8267 24C38.5772 24.3634 38.2963 24.5291 37.9536 24.5291C37.8603 24.5291 37.5176 24.3634 36.894 24.0667C36.3018 23.7688 35.6466 23.6031 34.8994 23.6031C32.7488 23.6031 31.6576 24.6949 31.6576 26.9091V29.7194C31.6576 31.9337 32.7487 33.0254 34.9297 33.0254C35.6782 33.0254 36.3332 32.8597 36.9557 32.5296C37.5479 32.1982 37.9221 32.0326 38.0154 32.0326C38.421 32.0326 38.7323 32.1982 38.9817 32.5296C39.2312 32.8597 39.3559 33.2232 39.3559 33.5866C39.3559 34.1814 38.9199 34.7105 38.0154 35.2062C37.112 35.7021 36.0209 35.9666 34.7117 35.9666C32.6857 35.9666 31.1587 35.4054 30.1305 34.2481C29.1327 33.1576 28.6034 31.6369 28.6034 29.7527ZM41.6314 34.645V13.0583C41.6314 12.7282 41.7561 12.4958 42.037 12.298C42.3168 12.0989 42.6595 12 43.127 12C43.5641 12 43.9686 12.0989 44.2495 12.298C44.5608 12.4958 44.7169 12.7604 44.7169 13.0583V27.0414L50.8567 21.0254C51.0444 20.8263 51.2624 20.7274 51.5118 20.7274C51.8545 20.7274 52.1658 20.893 52.5097 21.2232C52.8524 21.5545 53.0075 21.9179 53.0075 22.2815C53.0075 22.5461 52.9141 22.7773 52.7579 22.9751L48.9554 26.579L53.5693 33.6856C53.694 33.8846 53.7558 34.049 53.7558 34.2481C53.7558 34.6115 53.5693 35.0085 53.1637 35.3719C52.7579 35.7354 52.3849 35.9345 52.0107 35.9345C51.668 35.9345 51.4186 35.7688 51.2006 35.4709L46.8676 28.661L44.7169 30.7442V34.6783C44.7169 34.9417 44.5608 35.2062 44.2495 35.4374C43.9382 35.6698 43.5641 35.7688 43.127 35.7688C42.691 35.7688 42.3482 35.6698 42.0673 35.4374C41.7875 35.1742 41.6314 34.9095 41.6314 34.645ZM57.9943 27.0747H62.8879C63.325 27.0747 63.6048 27.008 63.761 26.8758C63.9172 26.7434 63.9791 26.5122 63.9791 26.1154C63.9791 25.2895 63.6992 24.5946 63.1373 24C62.5766 23.4386 61.8597 23.1407 61.0181 23.1407C60.208 23.1407 59.4911 23.4054 58.8988 23.9666C58.3067 24.5291 58.0258 25.2227 58.0258 26.0498V27.0747H57.9943ZM54.9086 29.7527V26.7768C54.9086 25.1238 55.5009 23.7033 56.7167 22.4793C57.901 21.2899 59.3663 20.6618 61.0496 20.6618C62.6699 20.6618 64.0419 21.2232 65.1949 22.2815C66.3476 23.3719 66.9096 24.727 66.9096 26.4134C66.9096 27.0414 66.8466 27.5706 66.6904 27.9674C66.5656 28.3643 66.3476 28.6277 66.0365 28.7934C65.7556 28.959 65.4758 29.0578 65.2263 29.0913C64.9769 29.1246 64.6341 29.1568 64.2284 29.1568H58.0258V29.885C58.0258 30.9422 58.3685 31.7693 59.0854 32.3973C59.8023 33.0254 60.7069 33.3221 61.8597 33.3221C62.6699 33.3221 63.4183 33.1242 64.1352 32.7274C64.8521 32.3305 65.288 32.1327 65.4442 32.1327C65.7869 32.1327 66.0679 32.2971 66.2859 32.6285C66.5354 32.9586 66.6286 33.2899 66.6286 33.62C66.6286 34.1491 66.1611 34.645 65.2263 35.2062C64.2914 35.7354 63.1373 36 61.7665 36C59.772 36 58.119 35.4374 56.8414 34.2815C55.5323 33.1242 54.9086 31.6035 54.9086 29.7527ZM69.3715 34.645V21.9179C69.3715 21.5866 69.5277 21.3554 69.8075 21.1576C70.0884 20.9586 70.4626 20.8597 70.8986 20.8597C71.2728 20.8597 71.6155 20.9586 71.8964 21.1576C72.1762 21.3554 72.3009 21.62 72.3009 21.9502V23.3386C72.6437 22.6115 73.1426 21.9835 73.828 21.4544C74.5146 20.9264 75.2315 20.6618 76.0416 20.6618H76.9765C77.2878 20.6618 77.5688 20.7942 77.7868 21.0909C78.0361 21.3888 78.1295 21.719 78.1295 22.1158C78.1295 22.5127 78.0047 22.8762 77.7868 23.1742C77.5372 23.4709 77.2878 23.6031 76.9765 23.6031H76.0416C75.1067 23.6031 74.2651 24.0334 73.5482 24.8926C72.8313 25.7519 72.4886 26.8437 72.4886 28.1986V34.6115C72.4886 34.8762 72.3324 35.1407 72.0212 35.3719C71.7087 35.6031 71.3346 35.7021 70.8986 35.7021C70.4626 35.7021 70.1199 35.6031 69.8075 35.3719C69.4962 35.1742 69.3715 34.9095 69.3715 34.645ZM80.904 29.9839C80.904 31.041 81.2466 32.0005 81.9631 32.8263C82.6804 33.6534 83.5534 34.049 84.5499 34.049C85.5793 34.049 86.4515 33.6534 87.168 32.8263C87.8845 32.0005 88.2592 31.0744 88.2592 29.9839V26.579C88.2592 25.5542 87.8845 24.6281 87.168 23.8343C86.4194 23.0085 85.5793 22.6115 84.582 22.6115C83.5839 22.6115 82.7117 23.0085 81.9952 23.8343C81.2779 24.6614 80.9353 25.5542 80.9353 26.579V29.9839H80.904ZM79.0024 29.9839V26.579C79.0024 24.9915 79.5633 23.6031 80.6545 22.4458C81.7457 21.2899 83.0543 20.694 84.582 20.694C86.0768 20.694 87.4183 21.2566 88.5088 22.4138C89.6305 23.571 90.1921 24.9594 90.1921 26.5456V29.9506C90.1921 31.5046 89.6305 32.893 88.5088 34.1158C87.3863 35.3064 86.0768 35.9345 84.582 35.9345C83.1161 35.9345 81.8075 35.3386 80.6858 34.1158C79.5633 32.9586 79.0024 31.5702 79.0024 29.9839ZM92.4973 34.9095V21.6534C92.4973 21.4222 92.592 21.2566 92.7476 21.0909C92.9354 20.9586 93.1528 20.893 93.4336 20.893C93.6816 20.893 93.8693 20.9586 94.0563 21.1242C94.244 21.2899 94.3066 21.4544 94.3066 21.6534V23.1074C94.6484 22.4138 95.1475 21.8512 95.8335 21.3888C96.5195 20.9264 97.3291 20.694 98.2326 20.694C99.6359 20.694 100.883 21.2566 101.911 22.4138C102.94 23.571 103.469 24.9594 103.469 26.5456V34.9095C103.469 35.1742 103.376 35.3719 103.19 35.5042C103.003 35.6366 102.752 35.7354 102.503 35.7354C102.254 35.7354 102.067 35.6698 101.849 35.5042C101.661 35.3719 101.568 35.1742 101.568 34.9095V26.579C101.568 25.5542 101.194 24.6281 100.477 23.8343C99.7595 23.0085 98.8881 22.6115 97.89 22.6115C96.9552 22.6115 96.1448 22.9751 95.4588 23.7033C94.7431 24.4302 94.3989 25.3885 94.3989 26.579V34.9095C94.3989 35.1074 94.305 35.3064 94.0876 35.4709C93.9014 35.6366 93.6816 35.7354 93.4031 35.7354C93.1215 35.7354 92.9033 35.6366 92.7171 35.4709C92.592 35.3386 92.4973 35.1407 92.4973 34.9095ZM107.615 27.4049H113.506C114.098 27.4049 114.472 27.3394 114.691 27.2071C114.877 27.0747 114.971 26.7768 114.971 26.3478C114.971 25.323 114.627 24.3969 113.911 23.6031C113.225 22.8106 112.352 22.4138 111.293 22.4138C110.265 22.4138 109.391 22.7773 108.674 23.5376C107.957 24.2979 107.615 25.1906 107.615 26.2155V27.4049ZM105.714 29.9839V26.4789C105.714 24.8926 106.275 23.5376 107.366 22.4138C108.457 21.2899 109.797 20.694 111.324 20.694C112.82 20.694 114.098 21.2566 115.189 22.3149C116.279 23.4054 116.81 24.7603 116.81 26.4134C116.81 27.008 116.747 27.4717 116.623 27.8351C116.498 28.1986 116.279 28.4298 115.999 28.5954C115.718 28.7278 115.469 28.8266 115.219 28.8922C114.971 28.9256 114.658 28.959 114.253 28.959H107.615V30.1162C107.615 31.339 108.02 32.3305 108.862 33.0909C109.704 33.8178 110.763 34.2147 112.072 34.2147C112.726 34.2147 113.319 34.1158 113.817 33.8846C114.224 33.7239 114.611 33.5125 114.971 33.2566C115.251 33.0575 115.439 32.9253 115.594 32.9253C115.811 32.9253 115.999 33.0254 116.155 33.2566C116.311 33.4878 116.404 33.6856 116.404 33.8846C116.404 34.3136 115.968 34.7773 115.126 35.2397C114.285 35.7021 113.225 35.9345 111.979 35.9345C110.107 35.9345 108.613 35.3719 107.428 34.2815C106.305 33.2232 105.714 31.7693 105.714 29.9839Z"></path>
</g>
</g>
<defs>
<clipPath id="clip0_18378_6702">
<rect fill="white" height="48" width="117"></rect>
</clipPath>
<clipPath id="clip1_18378_6702">
<rect transform="translate(0 12)" fill="white" height="24" width="117.333"></rect>
</clipPath>
</defs>
</svg>
