<svg xmlns="http://www.w3.org/2000/svg" fill="none" viewBox="0 0 173 48" height="48" width="173">
<g clip-path="url(#clip0_19327_1028)">
<g clip-path="url(#clip1_19327_1028)">
<path fill="white" d="M165.801 11.7371H155.271L147.975 35.9611H154.925L156.525 30.1726H164.252V30.2138L165.892 36.0023H173.015L165.801 11.7371ZM157.687 26.2313L160.409 16.4557L163.13 26.2313H157.687Z"></path>
<path fill="white" d="M67.9001 11.7828H46.2722V17.7405H56.2889L45.3228 36.0023H68.0318V30.0446H57.8016L67.9001 11.7828Z"></path>
<path fill="white" d="M143.528 25.9707C144.609 25.3717 145.513 24.5121 146.117 23.3965C146.762 22.1528 147.108 20.7811 147.067 19.3683C147.026 17.9555 146.635 16.6249 145.945 15.3813C145.168 14.1787 144.046 13.2369 142.751 12.6379C141.37 11.9932 139.73 11.6503 137.872 11.6503H124.189V36.0023H131.14V25.4129L138.131 36.0892H146.204L139.903 26.9126L140.293 26.8714C141.415 26.8303 142.538 26.5285 143.528 25.9707ZM139.081 22.4135C138.517 22.9713 137.786 23.3142 136.964 23.3142H131.135V17.3565H136.964C137.74 17.3565 138.517 17.6583 139.081 18.2161C139.644 18.7739 139.944 19.5466 139.944 20.3148C139.944 21.0829 139.644 21.8556 139.081 22.4135Z"></path>
<path fill="white" d="M108.303 11.0101C100.835 11.0101 94.9653 16.6706 94.9653 23.8719C94.9653 31.0733 100.835 36.7338 108.303 36.7338C115.771 36.7338 121.599 31.0733 121.599 23.8719C121.64 16.6706 115.771 11.0101 108.303 11.0101ZM112.964 28.5448C111.71 29.7016 110.029 30.3875 108.303 30.3875C107.008 30.3875 105.754 30.0034 104.678 29.3175C103.597 28.5905 102.779 27.6029 102.261 26.4004C101.743 25.1979 101.616 23.9131 101.87 22.6694C102.129 21.4258 102.733 20.269 103.642 19.3271C104.55 18.4263 105.713 17.7816 107.008 17.5713C108.262 17.3153 109.597 17.4433 110.806 17.9554C112.014 18.4263 113.009 19.2859 113.74 20.3558C114.476 21.4258 114.862 22.6694 114.862 23.9588C114.862 25.6734 114.172 27.3012 112.964 28.5448Z"></path>
<path fill="white" d="M85.4212 26.7434C85.4212 27.731 85.0305 28.7141 84.2991 29.3999C83.5632 30.1269 82.6138 30.5155 81.6235 30.5155C80.6331 30.5155 79.6383 30.1315 78.9478 29.3999C78.2573 28.6729 77.8257 27.7264 77.8257 26.7434V11.7828H70.8345V26.0575C70.8345 28.8878 71.9565 31.59 73.9871 33.6018C76.0177 35.6182 78.7343 36.7339 81.628 36.7339C84.4763 36.7339 87.2383 35.6182 89.2689 33.6018C91.2949 31.5855 92.4215 28.8878 92.4215 26.0575V11.7828H85.4303V26.7434H85.4212Z"></path>
<path fill="white" d="M171.188 12.3681H171.202L171.602 13.8038H172.002L172.392 12.3681H172.406V13.8038H172.947V11.7554H172.188L171.838 13.1271H171.82L171.47 11.7554H170.68V13.8038H171.188V12.3681Z"></path>
<path fill="white" d="M169.217 13.8038H169.766V12.2263H170.461V11.7554H168.535V12.2263H169.217V13.8038Z"></path>
<path fill="#00D2B9" d="M29.9542 41.8777H8.45345C7.3314 41.8777 6.38196 41.1918 5.99129 40.1631C5.60062 39.1343 5.94586 37.9775 6.81352 37.2917L11.6061 33.3915H2.62513C1.50308 33.3915 0.553646 32.7056 0.162971 31.6769C-0.227704 30.6481 0.0766592 29.5325 0.939777 28.8055L10.2206 21.1332C10.9974 20.4885 12.1194 20.6165 12.769 21.3481C13.4187 22.1208 13.2869 23.2364 12.551 23.8765L5.39165 29.8297H16.0534L30.5584 18.0834H6.03672C4.43768 18.0834 2.92949 17.4387 1.76201 16.3277C0.639957 15.212 0.0357747 13.7123 0.0357747 12.1257C0.0357747 10.5392 0.639957 9.03944 1.80744 7.88265C2.92949 6.76701 4.44222 6.12231 6.03672 6.12231H26.9287C28.0508 6.12231 29.0002 6.80816 29.3909 7.83693C29.7816 8.86569 29.4363 9.98133 28.5686 10.7083L23.9078 14.5262H33.3203C34.4424 14.5262 35.3918 15.212 35.7825 16.2408C36.1686 17.2696 35.8279 18.4264 34.9648 19.1122L21.7091 29.8297H29.9542C31.5532 29.8297 33.0614 30.4744 34.1835 31.5854C35.3055 32.7011 35.9551 34.2008 35.9551 35.8285V35.9154C35.9551 37.502 35.3509 39.0017 34.1835 40.1585C33.0614 41.2787 31.5487 41.8777 29.9542 41.8777ZM11.2609 38.3204H29.9542C30.6038 38.3204 31.208 38.0644 31.6804 37.6346C32.1529 37.1636 32.3709 36.5647 32.3709 35.92V35.8331C32.3709 35.1884 32.112 34.5894 31.6804 34.1185C31.2034 33.6475 30.5992 33.4326 29.9542 33.4326H17.3027L11.2609 38.3204ZM6.03672 9.67956C5.38711 9.67956 4.78293 9.93561 4.31048 10.3654C3.83349 10.8364 3.61999 11.4353 3.61999 12.08C3.61999 12.7247 3.87892 13.3237 4.31048 13.7946C4.78747 14.2656 5.39165 14.4805 6.03672 14.4805H18.2521L24.1667 9.67956H6.03672Z"></path>
</g>
</g>
<defs>
<clipPath id="clip0_19327_1028">
<rect fill="white" height="48" width="173.01"></rect>
</clipPath>
<clipPath id="clip1_19327_1028">
<rect transform="translate(0 6.12231)" fill="white" height="35.7554" width="173.01"></rect>
</clipPath>
</defs>
</svg>
